<svg xmlns="http://www.w3.org/2000/svg" viewBox="0 0 315 315"><defs><style>.cls-1{fill:#23659b;}.cls-2{fill:#6081a4;}.cls-3{fill:#96d0e2;}.cls-4{fill:#1e4970;}.cls-5{fill:#fff;}</style></defs><title>icon03</title><g id="圖層_1" data-name="圖層 1"><rect class="cls-1" x="-0.97" y="0.05" width="315" height="315" rx="33.86" ry="33.86"/><rect class="cls-2" x="108.22" y="68.68" width="29.09" height="2.49" transform="translate(-11.18 25) rotate(-11.12)"/><path class="cls-3" d="M127.57,77.51,239.91,48,125.72,55a37,37,0,0,1,1.85,22.5Z"/><path class="cls-3" d="M125.72,55l114.19-7L126.21,38.5A13.4,13.4,0,0,1,125.72,55Z"/><path class="cls-3" d="M127.57,77.51,239.91,48l-109,50.86a24.17,24.17,0,0,0,.45-13.3A23.79,23.79,0,0,0,127.57,77.51Z"/><path class="cls-2" d="M142.52,86.23a6.84,6.84,0,0,1,2.51-2,6.75,6.75,0,0,1-.38,3.17,1.26,1.26,0,1,1-2.13-1.2Z"/><path class="cls-2" d="M146,87.4a10.51,10.51,0,0,1,.6-5,10.55,10.55,0,0,1,3.08,3.92,2,2,0,1,1-3.68,1Z"/><path class="cls-2" d="M146.85,76.45c.37,1.32-.33,4.88-.6,5a10.55,10.55,0,0,1-3.07-3.92,2,2,0,1,1,3.67-1Z"/><path class="cls-2" d="M151.87,82.37a10.51,10.51,0,0,1-4.94-.59c-.08-.27,2.6-2.71,3.92-3.08a2,2,0,1,1,1,3.67Z"/><path class="cls-2" d="M140.93,81.48a10.55,10.55,0,0,1,4.95.59A10.55,10.55,0,0,1,142,85.15a2,2,0,1,1-1-3.67Z"/><path class="cls-2" d="M150.15,77.66a6.68,6.68,0,0,1-2.51,2,6.71,6.71,0,0,1,.38-3.16,1.27,1.27,0,1,1,2.13,1.2Z"/><path class="cls-2" d="M150.62,85.75a6.75,6.75,0,0,1-2-2.5,6.75,6.75,0,0,1,3.17.38,1.26,1.26,0,1,1-1.2,2.12Z"/><path class="cls-2" d="M142.05,78.13a6.68,6.68,0,0,1,2,2.51,6.71,6.71,0,0,1-3.16-.38,1.26,1.26,0,1,1,1.2-2.13Z"/><path class="cls-2" d="M137.94,68.61a7.78,7.78,0,0,1,2.93-2.29,8,8,0,0,1-.45,3.69,1.47,1.47,0,1,1-2.48-1.4Z"/><path class="cls-2" d="M141.94,70c-.43-1.53.39-5.68.7-5.77s3.16,3,3.59,4.57-.18,3-1.37,3.39S142.37,71.51,141.94,70Z"/><path class="cls-2" d="M143,57.21c.43,1.54-.39,5.69-.7,5.77s-3.15-3-3.58-4.57.18-3,1.36-3.38S142.56,55.68,143,57.21Z"/><path class="cls-2" d="M148.85,64.11c-1.54.44-5.69-.38-5.77-.69s3-3.16,4.57-3.59,3,.18,3.38,1.36S150.38,63.68,148.85,64.11Z"/><path class="cls-2" d="M136.09,63.07c1.53-.43,5.68.39,5.76.69s-3,3.16-4.56,3.59-3.06-.18-3.39-1.36S134.55,63.5,136.09,63.07Z"/><path class="cls-2" d="M146.83,58.62a7.85,7.85,0,0,1-2.92,2.29,7.79,7.79,0,0,1,.44-3.69,1.47,1.47,0,1,1,2.48,1.4Z"/><path class="cls-2" d="M147.39,68.06a7.9,7.9,0,0,1-2.3-2.92,7.79,7.79,0,0,1,3.69.44,1.47,1.47,0,1,1-1.39,2.48Z"/><path class="cls-2" d="M137.39,59.17a7.85,7.85,0,0,1,2.29,2.92,7.79,7.79,0,0,1-3.69-.44,1.47,1.47,0,1,1,1.4-2.48Z"/><path class="cls-2" d="M138.37,50.69a6.85,6.85,0,0,1,2.52-2,6.74,6.74,0,0,1-.38,3.2,1.27,1.27,0,1,1-2.14-1.21Z"/><path class="cls-2" d="M141.83,51.87c-.38-1.33.33-4.92.6-5a10.54,10.54,0,0,1,3.1,3.95,2,2,0,1,1-3.7,1Z"/><path class="cls-2" d="M142.73,40.83a10.69,10.69,0,0,1-.6,5,10.68,10.68,0,0,1-3.1-4,2,2,0,1,1,3.7-1Z"/><path class="cls-2" d="M147.8,46.8a10.67,10.67,0,0,1-5-.6c-.08-.27,2.62-2.73,3.95-3.11a2.28,2.28,0,0,1,2.93,1.18A2.28,2.28,0,0,1,147.8,46.8Z"/><path class="cls-2" d="M136.76,45.89a10.69,10.69,0,0,1,5,.6,10.53,10.53,0,0,1-3.95,3.11,2.28,2.28,0,0,1-2.93-1.18A2.28,2.28,0,0,1,136.76,45.89Z"/><path class="cls-2" d="M146.05,42a6.79,6.79,0,0,1-2.53,2,6.87,6.87,0,0,1,.39-3.19,1.27,1.27,0,1,1,2.14,1.2Z"/><path class="cls-2" d="M146.53,50.21a6.71,6.71,0,0,1-2-2.53,6.84,6.84,0,0,1,3.19.38,1.28,1.28,0,1,1-1.21,2.15Z"/><path class="cls-2" d="M137.89,42.52a6.78,6.78,0,0,1,2,2.53,6.84,6.84,0,0,1-3.19-.38,1.28,1.28,0,1,1,1.21-2.15Z"/><path class="cls-4" d="M120.88,55.19a.61.61,0,0,1-.33-.52.62.62,0,0,1,.58-.66l109.66-6.1L122.36,39.13a.62.62,0,1,1,.1-1.24L240,47.41l0,1.24L121.2,55.25A.59.59,0,0,1,120.88,55.19Z"/><path class="cls-4" d="M127.65,101a.62.62,0,0,1,0-1.11L233.45,50.37,123,79.36a.64.64,0,0,1-.76-.45.63.63,0,0,1,.45-.76L239.75,47.43l.42,1.16L128.19,101A.57.57,0,0,1,127.65,101Z"/><path class="cls-4" d="M111.41,74.12,88.55,77.73a2.93,2.93,0,0,1-.92-2A2.82,2.82,0,0,1,88,74.26l22.85-3.61Z"/><path class="cls-5" d="M129.45,151.79a24.23,24.23,0,0,1-6.33,6.65,53.57,53.57,0,0,0,12.67,2.67,18.1,18.1,0,0,0-2.7,4.14c-1.33-.18-2.56-.4-3.82-.65v10.08h-4.39v-1.05H112.75v1.12h-4.17v-9.9c-1.55.4-3.1.72-4.68,1a17.3,17.3,0,0,0-2.06-3.82,49.43,49.43,0,0,0,12.82-3.45,26,26,0,0,1-3.2-2.67,33.55,33.55,0,0,1-4.4,2.42,13.42,13.42,0,0,0-2.84-3.21c5-1.87,8.32-4.53,10.08-7.2h-6.7v4h-4.21v-7.88h13.39c-.39-.83-.82-1.66-1.19-2.34l4.29-1.05c.54,1.05,1.26,2.27,1.83,3.39h12.57v7.88h-4.4v-4h-15l4,.83-1.15,1.48h8l.72-.18Zm-4.57,18.32V167H112.75v3.1Zm0-6.63a43.82,43.82,0,0,1-6.16-2.41,44.18,44.18,0,0,1-5.69,2.41Zm-10.37-9.9a19.9,19.9,0,0,0,4.25,3,21.61,21.61,0,0,0,4.1-3.1h-8.17Z"/><path class="cls-5" d="M170,156.83c-1.44,1.11-3.06,2.26-4.65,3.34a15,15,0,0,0,8.43,9.47,15.85,15.85,0,0,0-2.85,3.49c-4.32-2-7.16-5.9-8.92-10.8-.36.25-.76.47-1.12.69,1,4.32.15,8.45-1.69,10a5.35,5.35,0,0,1-4.28,1.69c-.8,0-1.88,0-2.92,0a9.6,9.6,0,0,0-1.15-4.06,29.64,29.64,0,0,0,3.24.17,1.94,1.94,0,0,0,1.94-.86,5.26,5.26,0,0,0,1-3.63,57.17,57.17,0,0,1-14.55,6.91,16.89,16.89,0,0,0-2.23-3.57c5.69-1.22,12.6-4.32,16.16-7.34a12.09,12.09,0,0,0-.54-1.37A60,60,0,0,1,143,166.76a18.38,18.38,0,0,0-2.13-3.31,45.59,45.59,0,0,0,13.46-5.29c-.32-.4-.64-.79-1-1.19a48.67,48.67,0,0,1-10,3.78,20,20,0,0,0-2.2-3.35,43.37,43.37,0,0,0,11.59-4h-6.19v-3.63H166.6v3.63h-8a16.19,16.19,0,0,1-2.16,1.66,13.71,13.71,0,0,1,3.17,4.35,46.48,46.48,0,0,0,6.8-5.43Zm-24.62-4.76h-4.21v-8.13h13a16.39,16.39,0,0,0-.87-1.91l4.54-1.29a19.65,19.65,0,0,1,1.55,3.2h12.81v8.13h-4.39v-4.24H145.37Z"/><path class="cls-5" d="M191.52,150.42h-13.9V147h6.23a34.27,34.27,0,0,0-2.34-4.53l3.31-1.55a32.53,32.53,0,0,1,2.7,4.79L185.11,147h6.41Zm-1.05,22.31h-7.73v1.52h-3.6V161.83h11.33Zm-.25-17.45h-11V152h11Zm-11,1.62h11v3.2h-11Zm3.53,8.35v4h4v-4ZM211.21,156v3.53h-20.3V156h4.28c.22-1.19.5-2.52.76-4h-3.24v-3.45h3.85c.14-.9.25-1.8.39-2.67h-5.14v-3.52h18.46V146h-9.1c-.15.87-.29,1.77-.47,2.67h7.45V156Zm-18.5,5.22h16.55v13.39h-4.17v-1.18H196.7v1.29h-4Zm4,3.67v4.86h8.39v-4.86Zm3.39-12.85c-.26,1.44-.55,2.77-.8,4h4.9v-4Z"/><polygon class="cls-3" points="131.67 201.19 156.28 195 179.2 200.75 197.98 218.73 204.78 243.5 199.24 266.02 181.27 285.07 156.28 292 133.54 286.35 114.48 268.11 107.78 243.5 113.64 220.36 131.67 201.19"/><path class="cls-2" d="M185.29,255.73a6,6,0,0,1,1.91,2.08,5.91,5.91,0,0,1-2.82-.12,1.12,1.12,0,1,1,.91-2Z"/><path class="cls-2" d="M184.5,258.84a9.23,9.23,0,0,1,4.41.18,9.32,9.32,0,0,1-3.25,3,1.75,1.75,0,1,1-1.16-3.17Z"/><path class="cls-2" d="M194.22,258.87a9.35,9.35,0,0,1-4.41-.18,9.32,9.32,0,0,1,3.25-3,1.75,1.75,0,1,1,1.16,3.17Z"/><path class="cls-2" d="M189.34,263.71a9.29,9.29,0,0,1,.19-4.4,9.26,9.26,0,0,1,3,3.24,1.75,1.75,0,1,1-3.17,1.16Z"/><path class="cls-2" d="M189.38,254a9.29,9.29,0,0,1-.19,4.4,9.26,9.26,0,0,1-3-3.24,1.75,1.75,0,1,1,3.17-1.16Z"/><path class="cls-2" d="M193.38,261.86a6.05,6.05,0,0,1-1.91-2.07,6,6,0,0,1,2.82.11,1.12,1.12,0,1,1-.91,2Z"/><path class="cls-2" d="M186.27,262.84a6.06,6.06,0,0,1,2.08-1.91,5.91,5.91,0,0,1-.12,2.82,1.12,1.12,0,1,1-2-.91Z"/><path class="cls-2" d="M192.4,254.75a6,6,0,0,1-2.07,1.91,6,6,0,0,1,.11-2.82,1.12,1.12,0,1,1,2,.91Z"/><path class="cls-2" d="M119.21,225.11a5.87,5.87,0,0,1,1.91,2.07,6,6,0,0,1-2.82-.11,1.12,1.12,0,1,1,.91-2Z"/><path class="cls-2" d="M118.42,228.21a9.34,9.34,0,0,1,4.41.19,9.32,9.32,0,0,1-3.25,3,1.75,1.75,0,1,1-1.16-3.17Z"/><path class="cls-2" d="M128.14,228.25a9.33,9.33,0,0,1-4.41-.19,9.32,9.32,0,0,1,3.25-3,1.75,1.75,0,1,1,1.16,3.17Z"/><path class="cls-2" d="M123.26,233.09a9.5,9.5,0,0,1,.18-4.41,9.32,9.32,0,0,1,3,3.25,1.75,1.75,0,1,1-3.17,1.16Z"/><path class="cls-2" d="M123.29,223.37a9.23,9.23,0,0,1-.18,4.41,9.32,9.32,0,0,1-3-3.25,1.74,1.74,0,1,1,3.16-1.16Z"/><path class="cls-2" d="M127.3,231.24a6.06,6.06,0,0,1-1.91-2.08,5.91,5.91,0,0,1,2.82.12,1.12,1.12,0,1,1-.91,2Z"/><path class="cls-2" d="M120.19,232.22a5.86,5.86,0,0,1,2.08-1.91,5.91,5.91,0,0,1-.12,2.82,1.12,1.12,0,1,1-2-.91Z"/><path class="cls-2" d="M126.32,224.13a6,6,0,0,1-2.07,1.91,6,6,0,0,1,.11-2.82,1.12,1.12,0,1,1,2,.91Z"/><path class="cls-2" d="M187.75,243.49a5.93,5.93,0,0,1,2.57,1.17,6.12,6.12,0,0,1-2.64,1c-.78,0-1.39-.53-1.37-1.13A1.28,1.28,0,0,1,187.75,243.49Z"/><path class="cls-2" d="M188.23,246.66a9.38,9.38,0,0,1,4.13-1.55,9.28,9.28,0,0,1-1.82,4,1.75,1.75,0,1,1-2.31-2.47Z"/><path class="cls-2" d="M197.2,242.91a9.34,9.34,0,0,1-4.13,1.54,9.3,9.3,0,0,1,1.82-4,1.75,1.75,0,1,1,2.31,2.47Z"/><path class="cls-2" d="M194.59,249.27a9.38,9.38,0,0,1-1.55-4.13,9.28,9.28,0,0,1,4,1.82,1.75,1.75,0,1,1-2.47,2.31Z"/><path class="cls-2" d="M190.84,240.3a9.34,9.34,0,0,1,1.54,4.13,9.3,9.3,0,0,1-4-1.82,1.75,1.75,0,1,1,2.47-2.31Z"/><path class="cls-2" d="M197.59,246a6.11,6.11,0,0,1-2.57-1.17,5.87,5.87,0,0,1,2.64-1c.78,0,1.39.53,1.37,1.13A1.28,1.28,0,0,1,197.59,246Z"/><path class="cls-2" d="M191.42,249.66a6,6,0,0,1,1.17-2.57,6,6,0,0,1,1,2.64c0,.78-.53,1.39-1.13,1.37A1.29,1.29,0,0,1,191.42,249.66Z"/><path class="cls-2" d="M193.92,239.82a6,6,0,0,1-1.17,2.57,6.12,6.12,0,0,1-1-2.65,1.12,1.12,0,1,1,2.16.08Z"/><path class="cls-2" d="M115,241a5.81,5.81,0,0,1,2.57,1.17,6,6,0,0,1-2.64,1A1.11,1.11,0,1,1,115,241Z"/><path class="cls-2" d="M115.44,244.18a9.26,9.26,0,0,1,4.13-1.55,9.2,9.2,0,0,1-1.82,4,1.75,1.75,0,1,1-2.31-2.46Z"/><path class="cls-2" d="M124.41,240.42a9.26,9.26,0,0,1-4.13,1.55,9.25,9.25,0,0,1,1.82-4,1.75,1.75,0,1,1,2.31,2.46Z"/><path class="cls-2" d="M121.8,246.78a9.3,9.3,0,0,1-1.55-4.13,9.32,9.32,0,0,1,4,1.83,1.75,1.75,0,1,1-2.47,2.3Z"/><path class="cls-2" d="M118.05,237.82a9.26,9.26,0,0,1,1.54,4.13,9.35,9.35,0,0,1-4-1.83,1.75,1.75,0,1,1,2.47-2.3Z"/><path class="cls-2" d="M124.8,243.5a6,6,0,0,1-2.57-1.16,5.87,5.87,0,0,1,2.65-1,1.11,1.11,0,1,1-.08,2.15Z"/><path class="cls-2" d="M118.63,247.18a6,6,0,0,1,1.17-2.57,5.77,5.77,0,0,1,1,2.64c0,.77-.53,1.39-1.13,1.36A1.27,1.27,0,0,1,118.63,247.18Z"/><path class="cls-2" d="M121.13,237.34A5.87,5.87,0,0,1,120,239.9a6,6,0,0,1-1-2.64,1.12,1.12,0,1,1,2.16.08Z"/><path class="cls-2" d="M185.57,232a6.09,6.09,0,0,1,2.81.15,5.81,5.81,0,0,1-2.09,1.89,1.12,1.12,0,1,1-.72-2Z"/><path class="cls-2" d="M187.17,234.81a9.51,9.51,0,0,1,3.28-2.95,9.31,9.31,0,0,1-.23,4.41,1.75,1.75,0,1,1-3.05-1.46Z"/><path class="cls-2" d="M194.15,228.05a9.18,9.18,0,0,1-3.28,2.94,9.17,9.17,0,0,1,.24-4.4,1.74,1.74,0,1,1,3,1.46Z"/><path class="cls-2" d="M194,234.92a9.35,9.35,0,0,1-2.94-3.28,9.26,9.26,0,0,1,4.4.23,1.75,1.75,0,1,1-1.46,3Z"/><path class="cls-2" d="M187.28,227.94a9.33,9.33,0,0,1,2.95,3.28,9.21,9.21,0,0,1-4.41-.24,1.74,1.74,0,1,1,1.46-3Z"/><path class="cls-2" d="M195.64,230.77a6,6,0,0,1-2.82-.15,6,6,0,0,1,2.1-1.89,1.12,1.12,0,1,1,.72,2Z"/><path class="cls-2" d="M191.24,236.44a5.87,5.87,0,0,1,.15-2.82,6,6,0,0,1,1.88,2.1,1.11,1.11,0,1,1-2,.72Z"/><path class="cls-2" d="M190,226.37a5.83,5.83,0,0,1-.15,2.81,6,6,0,0,1-1.88-2.1,1.11,1.11,0,1,1,2-.71Z"/><path class="cls-2" d="M116.88,256.26a6,6,0,0,1,2.82.15,6,6,0,0,1-2.1,1.89,1.12,1.12,0,1,1-.72-2Z"/><path class="cls-2" d="M118.49,259a9.23,9.23,0,0,1,3.28-3,9.17,9.17,0,0,1-.24,4.4,1.74,1.74,0,1,1-3-1.45Z"/><path class="cls-2" d="M125.47,252.27a9.23,9.23,0,0,1-3.29,2.95,9.43,9.43,0,0,1,.24-4.4,1.75,1.75,0,1,1,3,1.45Z"/><path class="cls-2" d="M125.36,259.14a9.33,9.33,0,0,1-3-3.28,9.43,9.43,0,0,1,4.4.24,1.74,1.74,0,1,1-1.45,3Z"/><path class="cls-2" d="M118.6,252.17a9.18,9.18,0,0,1,2.94,3.28,9.3,9.3,0,0,1-4.4-.24,1.75,1.75,0,1,1,1.46-3Z"/><path class="cls-2" d="M127,255a6.14,6.14,0,0,1-2.82-.15,6,6,0,0,1,2.1-1.89,1.12,1.12,0,1,1,.72,2Z"/><path class="cls-2" d="M122.55,260.67a6,6,0,0,1,.15-2.82,6,6,0,0,1,1.89,2.1,1.12,1.12,0,1,1-2,.72Z"/><path class="cls-2" d="M121.29,250.59a6,6,0,0,1-.15,2.82,6,6,0,0,1-1.89-2.1,1.12,1.12,0,1,1,2-.72Z"/><path class="cls-2" d="M178.33,221.11a5.93,5.93,0,0,1,2.63-1,5.85,5.85,0,0,1-1.14,2.58,1.11,1.11,0,1,1-1.49-1.56Z"/><path class="cls-2" d="M180.93,223a9.28,9.28,0,0,1,1.79-4,9.26,9.26,0,0,1,1.58,4.11c0,1.22-.81,2.18-1.74,2.15A2,2,0,0,1,180.93,223Z"/><path class="cls-2" d="M184.54,214a9.23,9.23,0,0,1-1.79,4,9.26,9.26,0,0,1-1.58-4.11,1.74,1.74,0,1,1,3.37.09Z"/><path class="cls-2" d="M187.25,220.28a9.22,9.22,0,0,1-4-1.79,9.26,9.26,0,0,1,4.11-1.58,1.74,1.74,0,1,1-.08,3.37Z"/><path class="cls-2" d="M178.22,216.67a9.22,9.22,0,0,1,4,1.79,9.15,9.15,0,0,1-4.11,1.58c-1.22,0-2.18-.81-2.15-1.74A2,2,0,0,1,178.22,216.67Z"/><path class="cls-2" d="M187,215.84a5.73,5.73,0,0,1-2.63,1,5.91,5.91,0,0,1,1.15-2.57,1.11,1.11,0,1,1,1.48,1.56Z"/><path class="cls-2" d="M185.3,222.82a6,6,0,0,1-1-2.64,6.06,6.06,0,0,1,2.58,1.15,1.12,1.12,0,1,1-1.57,1.49Z"/><path class="cls-2" d="M180,214.13a6,6,0,0,1,1,2.64,6,6,0,0,1-2.57-1.15,1.12,1.12,0,1,1,1.56-1.49Z"/><path class="cls-2" d="M125.5,271.24a5.89,5.89,0,0,1,2.63-1A5.86,5.86,0,0,1,127,272.8a1.12,1.12,0,1,1-1.49-1.56Z"/><path class="cls-2" d="M128.1,273.12a9.28,9.28,0,0,1,1.79-4,9.37,9.37,0,0,1,1.58,4.12,1.74,1.74,0,1,1-3.37-.09Z"/><path class="cls-2" d="M131.71,264.1a9.34,9.34,0,0,1-1.79,4,9.13,9.13,0,0,1-1.58-4.12,1.74,1.74,0,1,1,3.37.09Z"/><path class="cls-2" d="M134.41,270.42a9.45,9.45,0,0,1-4-1.8A9.37,9.37,0,0,1,134.5,267a1.75,1.75,0,1,1-.09,3.38Z"/><path class="cls-2" d="M125.39,266.8a9.27,9.27,0,0,1,4,1.8,9.31,9.31,0,0,1-4.12,1.58,1.75,1.75,0,1,1,.09-3.38Z"/><path class="cls-2" d="M134.18,266a6,6,0,0,1-2.63,1,5.82,5.82,0,0,1,1.15-2.58,1.12,1.12,0,1,1,1.48,1.57Z"/><path class="cls-2" d="M132.47,273a6,6,0,0,1-1-2.64,6.11,6.11,0,0,1,2.58,1.15,1.12,1.12,0,1,1-1.57,1.49Z"/><path class="cls-2" d="M127.21,264.27a6,6,0,0,1,1,2.63,6,6,0,0,1-2.58-1.15,1.12,1.12,0,1,1,1.57-1.48Z"/><path class="cls-2" d="M168.52,214.55a6.06,6.06,0,0,1,2.08-1.91,6,6,0,0,1-.12,2.82,1.12,1.12,0,1,1-2-.91Z"/><path class="cls-2" d="M171.63,215.35a9.2,9.2,0,0,1,.19-4.41,9.41,9.41,0,0,1,3,3.25,1.75,1.75,0,1,1-3.17,1.16Z"/><path class="cls-2" d="M171.68,205.63a9.47,9.47,0,0,1-.19,4.41,9.32,9.32,0,0,1-3-3.25,1.75,1.75,0,1,1,3.17-1.16Z"/><path class="cls-2" d="M176.51,210.51a9.21,9.21,0,0,1-4.41-.19,9.51,9.51,0,0,1,3.25-3,1.75,1.75,0,1,1,1.16,3.17Z"/><path class="cls-2" d="M166.79,210.46a9.46,9.46,0,0,1,4.41.19,9.22,9.22,0,0,1-3.25,3,1.75,1.75,0,1,1-1.16-3.17Z"/><path class="cls-2" d="M174.67,206.47a6.06,6.06,0,0,1-2.08,1.91,5.91,5.91,0,0,1,.12-2.82,1.12,1.12,0,1,1,2,.91Z"/><path class="cls-2" d="M175.63,213.58a5.83,5.83,0,0,1-1.9-2.08,5.94,5.94,0,0,1,2.82.13,1.12,1.12,0,1,1-.92,2Z"/><path class="cls-2" d="M167.55,207.44a6,6,0,0,1,1.91,2.08,5.94,5.94,0,0,1-2.82-.13,1.11,1.11,0,1,1,.91-1.95Z"/><path class="cls-2" d="M137.77,280.57a5.91,5.91,0,0,1,2.08-1.9,6,6,0,0,1-.12,2.81,1.12,1.12,0,1,1-2-.91Z"/><path class="cls-2" d="M140.88,281.37a9.21,9.21,0,0,1,.19-4.41,9.51,9.51,0,0,1,3,3.25,1.75,1.75,0,1,1-3.17,1.16Z"/><path class="cls-2" d="M140.93,271.65a9.46,9.46,0,0,1-.19,4.41,9.22,9.22,0,0,1-3-3.25,1.75,1.75,0,1,1,3.17-1.16Z"/><path class="cls-2" d="M145.76,276.54a9.47,9.47,0,0,1-4.41-.19,9.32,9.32,0,0,1,3.25-3,1.75,1.75,0,1,1,1.16,3.17Z"/><path class="cls-2" d="M136,276.49a9.2,9.2,0,0,1,4.41.19,9.41,9.41,0,0,1-3.25,3,1.75,1.75,0,1,1-1.16-3.17Z"/><path class="cls-2" d="M143.91,272.49a6,6,0,0,1-2.07,1.91,5.91,5.91,0,0,1,.12-2.82,1.11,1.11,0,1,1,1.95.91Z"/><path class="cls-2" d="M144.88,279.6a5.82,5.82,0,0,1-1.9-2.07,5.87,5.87,0,0,1,2.81.12,1.11,1.11,0,1,1-.91,2Z"/><path class="cls-2" d="M136.8,273.46a6.06,6.06,0,0,1,1.91,2.08,6,6,0,0,1-2.82-.12,1.12,1.12,0,1,1,.91-2Z"/><path class="cls-2" d="M156.28,212.07a5.92,5.92,0,0,1,1.18-2.57,6,6,0,0,1,1,2.65,1.12,1.12,0,1,1-2.16-.08Z"/><path class="cls-2" d="M159.46,211.59a9.17,9.17,0,0,1-1.54-4.13,9.47,9.47,0,0,1,4,1.83,1.75,1.75,0,1,1-2.47,2.3Z"/><path class="cls-2" d="M155.72,202.62a9.21,9.21,0,0,1,1.54,4.13,9.13,9.13,0,0,1-4-1.83,1.75,1.75,0,1,1,2.47-2.3Z"/><path class="cls-2" d="M162.07,205.24a9.26,9.26,0,0,1-4.13,1.54,9.37,9.37,0,0,1,1.83-4,1.75,1.75,0,1,1,2.3,2.47Z"/><path class="cls-2" d="M153.1,209a9.21,9.21,0,0,1,4.13-1.54,9.23,9.23,0,0,1-1.83,4,1.75,1.75,0,1,1-2.3-2.47Z"/><path class="cls-2" d="M158.8,202.23a6,6,0,0,1-1.17,2.57,5.87,5.87,0,0,1-1-2.65,1.12,1.12,0,1,1,2.16.08Z"/><path class="cls-2" d="M162.46,208.41a6,6,0,0,1-2.57-1.18,6,6,0,0,1,2.65-1,1.12,1.12,0,1,1-.08,2.16Z"/><path class="cls-2" d="M152.62,205.89a5.86,5.86,0,0,1,2.57,1.18,6,6,0,0,1-2.64,1c-.78,0-1.39-.53-1.37-1.13A1.28,1.28,0,0,1,152.62,205.89Z"/><path class="cls-2" d="M153.66,284.85a6,6,0,0,1,1.17-2.56,5.82,5.82,0,0,1,1,2.64c0,.77-.53,1.39-1.13,1.36A1.26,1.26,0,0,1,153.66,284.85Z"/><path class="cls-2" d="M156.83,284.38a9.47,9.47,0,0,1-1.54-4.13,9.13,9.13,0,0,1,4,1.83,1.75,1.75,0,1,1-2.47,2.3Z"/><path class="cls-2" d="M153.1,275.41a9.43,9.43,0,0,1,1.54,4.13,9.37,9.37,0,0,1-4-1.83,1.75,1.75,0,1,1,2.47-2.3Z"/><path class="cls-2" d="M159.45,278a9.21,9.21,0,0,1-4.13,1.54,9.23,9.23,0,0,1,1.83-4,1.75,1.75,0,1,1,2.3,2.47Z"/><path class="cls-2" d="M150.48,281.76a9.34,9.34,0,0,1,4.13-1.54,9.13,9.13,0,0,1-1.83,4,1.75,1.75,0,1,1-2.3-2.47Z"/><path class="cls-2" d="M156.18,275a5.87,5.87,0,0,1-1.18,2.56,6,6,0,0,1-1-2.64c0-.78.53-1.39,1.13-1.36A1.28,1.28,0,0,1,156.18,275Z"/><path class="cls-2" d="M159.84,281.19a6,6,0,0,1-2.57-1.17,6.12,6.12,0,0,1,2.64-1,1.28,1.28,0,0,1,1.37,1.13A1.27,1.27,0,0,1,159.84,281.19Z"/><path class="cls-2" d="M150,278.68a6,6,0,0,1,2.57,1.17,6,6,0,0,1-2.65,1,1.11,1.11,0,1,1,.08-2.15Z"/><path class="cls-2" d="M144.82,214.23a6.11,6.11,0,0,1,.16-2.82,5.85,5.85,0,0,1,1.88,2.1,1.12,1.12,0,1,1-2,.72Z"/><path class="cls-2" d="M147.6,212.63a9.38,9.38,0,0,1-2.94-3.29,9.37,9.37,0,0,1,4.41.25,1.75,1.75,0,1,1-1.47,3Z"/><path class="cls-2" d="M140.85,205.64a9.1,9.1,0,0,1,2.94,3.29,9.33,9.33,0,0,1-4.4-.25,1.74,1.74,0,1,1,1.46-3Z"/><path class="cls-2" d="M147.72,205.76a9.28,9.28,0,0,1-3.28,2.94,9.3,9.3,0,0,1,.24-4.4,1.75,1.75,0,1,1,3,1.46Z"/><path class="cls-2" d="M140.73,212.51a9.28,9.28,0,0,1,3.29-2.94,9.3,9.3,0,0,1-.24,4.4,1.75,1.75,0,1,1-3.05-1.46Z"/><path class="cls-2" d="M143.58,204.15a5.85,5.85,0,0,1-.16,2.82,6,6,0,0,1-1.88-2.1,1.12,1.12,0,1,1,2-.72Z"/><path class="cls-2" d="M149.24,208.57a6,6,0,0,1-2.82-.16,6,6,0,0,1,2.11-1.88,1.27,1.27,0,0,1,1.68.56A1.28,1.28,0,0,1,149.24,208.57Z"/><path class="cls-2" d="M139.16,209.81A6,6,0,0,1,142,210a6,6,0,0,1-2.1,1.88,1.12,1.12,0,1,1-.72-2Z"/><path class="cls-2" d="M168.92,283a5.85,5.85,0,0,1,.16-2.82,6,6,0,0,1,1.88,2.11,1.12,1.12,0,1,1-2,.71Z"/><path class="cls-2" d="M171.7,281.36a9.19,9.19,0,0,1-2.94-3.29,9.33,9.33,0,0,1,4.4.25,1.75,1.75,0,1,1-1.46,3Z"/><path class="cls-2" d="M165,274.37a9.38,9.38,0,0,1,2.94,3.29,9.33,9.33,0,0,1-4.4-.25,1.75,1.75,0,1,1,1.46-3Z"/><path class="cls-2" d="M171.82,274.49a9.28,9.28,0,0,1-3.29,2.94,9.33,9.33,0,0,1,.25-4.4,1.75,1.75,0,1,1,3,1.46Z"/><path class="cls-2" d="M164.83,281.24a9.37,9.37,0,0,1,3.28-2.94,9.17,9.17,0,0,1-.24,4.4,1.75,1.75,0,1,1-3-1.46Z"/><path class="cls-2" d="M167.67,272.88a6,6,0,0,1-.15,2.82,5.85,5.85,0,0,1-1.88-2.1,1.11,1.11,0,1,1,2-.72Z"/><path class="cls-2" d="M173.33,277.3a5.8,5.8,0,0,1-2.81-.16,6,6,0,0,1,2.1-1.88,1.12,1.12,0,1,1,.71,2Z"/><path class="cls-2" d="M163.26,278.54a6,6,0,0,1,2.82.16,6,6,0,0,1-2.11,1.88,1.12,1.12,0,1,1-.71-2Z"/><path class="cls-2" d="M133.88,221.44a5.85,5.85,0,0,1-1-2.63,5.91,5.91,0,0,1,2.57,1.15,1.12,1.12,0,1,1-1.57,1.48Z"/><path class="cls-2" d="M135.77,218.85a9.33,9.33,0,0,1-4-1.8,9.26,9.26,0,0,1,4.12-1.57,1.74,1.74,0,1,1-.09,3.37Z"/><path class="cls-2" d="M126.75,215.22a9.39,9.39,0,0,1,4,1.8,9.26,9.26,0,0,1-4.12,1.57,1.74,1.74,0,1,1,.09-3.37Z"/><path class="cls-2" d="M133.08,212.53a9.21,9.21,0,0,1-1.81,4,9.28,9.28,0,0,1-1.57-4.12,1.75,1.75,0,1,1,3.38.1Z"/><path class="cls-2" d="M129.45,221.54a9.22,9.22,0,0,1,1.8-4,9.33,9.33,0,0,1,1.57,4.12,1.74,1.74,0,1,1-3.37-.1Z"/><path class="cls-2" d="M128.64,212.75a6,6,0,0,1,1,2.64,6,6,0,0,1-2.57-1.15,1.12,1.12,0,1,1,1.57-1.49Z"/><path class="cls-2" d="M135.61,214.48a6,6,0,0,1-2.64,1,5.91,5.91,0,0,1,1.15-2.57,1.26,1.26,0,0,1,1.76-.18A1.28,1.28,0,0,1,135.61,214.48Z"/><path class="cls-2" d="M126.91,219.72a5.88,5.88,0,0,1,2.64-1,6,6,0,0,1-1.15,2.57,1.12,1.12,0,1,1-1.49-1.57Z"/><path class="cls-2" d="M183.91,274.37a6,6,0,0,1-1-2.63,5.91,5.91,0,0,1,2.57,1.15,1.12,1.12,0,1,1-1.57,1.48Z"/><path class="cls-2" d="M185.8,271.78a9.45,9.45,0,0,1-4-1.8,9.26,9.26,0,0,1,4.12-1.57,1.74,1.74,0,1,1-.09,3.37Z"/><path class="cls-2" d="M176.78,268.15a9.21,9.21,0,0,1,4,1.8,9.26,9.26,0,0,1-4.12,1.57,1.74,1.74,0,1,1,.09-3.37Z"/><path class="cls-2" d="M183.11,265.46a9.34,9.34,0,0,1-1.8,4,9.19,9.19,0,0,1-1.58-4.12,1.75,1.75,0,1,1,3.38.1Z"/><path class="cls-2" d="M179.48,274.47a9.22,9.22,0,0,1,1.8-4,9.28,9.28,0,0,1,1.57,4.12,1.74,1.74,0,1,1-3.37-.1Z"/><path class="cls-2" d="M178.67,265.68a5.84,5.84,0,0,1,1,2.64,6,6,0,0,1-2.57-1.16,1.12,1.12,0,1,1,1.57-1.48Z"/><path class="cls-2" d="M185.64,267.4a5.92,5.92,0,0,1-2.64,1,6,6,0,0,1,1.15-2.58,1.12,1.12,0,1,1,1.49,1.57Z"/><path class="cls-2" d="M176.94,272.65a6,6,0,0,1,2.64-1,5.89,5.89,0,0,1-1.15,2.58,1.12,1.12,0,1,1-1.49-1.57Z"/><path class="cls-4" d="M181.84,287.08a.5.5,0,0,1-.43-.25L158.71,248a.51.51,0,0,1,.18-.69.5.5,0,0,1,.68.18l22.7,38.86a.49.49,0,0,1-.18.68A.47.47,0,0,1,181.84,287.08Z"/><path class="cls-4" d="M153.91,240.27a.5.5,0,0,1-.43-.24l-22.7-38.86a.5.5,0,0,1,.87-.5l22.7,38.85a.51.51,0,0,1-.18.69A.58.58,0,0,1,153.91,240.27Z"/><path class="cls-4" d="M160.5,241.64a.5.5,0,0,1-.25-.93L199.1,218a.51.51,0,0,1,.69.18.49.49,0,0,1-.18.68l-38.86,22.7A.45.45,0,0,1,160.5,241.64Z"/><path class="cls-4" d="M113.7,269.56a.51.51,0,0,1-.44-.25.5.5,0,0,1,.18-.68l38.86-22.7a.5.5,0,0,1,.5.86L114,269.49A.47.47,0,0,1,113.7,269.56Z"/><path class="cls-4" d="M200.42,267.68a.5.5,0,0,1-.24-.06l-39.59-21.39a.49.49,0,0,1-.2-.68.49.49,0,0,1,.67-.2l39.59,21.39a.49.49,0,0,1,.21.67A.51.51,0,0,1,200.42,267.68Z"/><path class="cls-4" d="M152.23,242.21a.53.53,0,0,1-.24-.06L112.4,220.76a.5.5,0,0,1,.47-.88l39.6,21.39a.51.51,0,0,1,.2.68A.49.49,0,0,1,152.23,242.21Z"/><path class="cls-4" d="M158.56,240a.46.46,0,0,1-.23-.06.5.5,0,0,1-.21-.68l21.39-39.59a.5.5,0,1,1,.88.48L159,239.69A.49.49,0,0,1,158.56,240Z"/><path class="cls-4" d="M133.1,288.14a.53.53,0,0,1-.24-.06.5.5,0,0,1-.2-.68l21.39-39.59a.5.5,0,0,1,.88.48l-21.39,39.59A.49.49,0,0,1,133.1,288.14Z"/><path class="cls-4" d="M206.28,244h-45a.5.5,0,1,1,0-1h45a.5.5,0,0,1,0,1Z"/><path class="cls-4" d="M151.78,244.5h-45a.5.5,0,1,1,0-1h45a.5.5,0,0,1,0,1Z"/><path class="cls-4" d="M156.28,239.5a.5.5,0,0,1-.5-.5V194a.5.5,0,0,1,.5-.5.5.5,0,0,1,.5.5v45A.5.5,0,0,1,156.28,239.5Z"/><path class="cls-4" d="M156.78,294a.5.5,0,0,1-.5-.5v-45a.5.5,0,0,1,.5-.5.5.5,0,0,1,.5.5v45A.5.5,0,0,1,156.78,294Z"/><circle class="cls-4" cx="156.28" cy="244" r="2"/></g></svg>