<svg xmlns="http://www.w3.org/2000/svg" viewBox="0 0 315 315"><defs><style>.cls-1{fill:#ff6ab2;}.cls-2{fill:#6081a4;}.cls-3{fill:#fff;}.cls-4{fill:#1e4970;}</style></defs><title>hover03</title><g id="圖層_1" data-name="圖層 1"><rect class="cls-1" x="-1.25" width="315" height="315" rx="33.86" ry="33.86"/><rect class="cls-2" x="107.95" y="68.63" width="29.09" height="2.49" transform="translate(-11.18 24.94) rotate(-11.12)"/><path class="cls-2" d="M127.3,77.46,239.64,48l-114.2,7a36.85,36.85,0,0,1,1.86,22.5Z"/><path class="cls-2" d="M125.44,55l114.2-7-113.7-9.53a13.38,13.38,0,0,1-.5,16.51Z"/><path class="cls-2" d="M127.3,77.46,239.64,48l-109,50.86a24.29,24.29,0,0,0,.45-13.3A23.79,23.79,0,0,0,127.3,77.46Z"/><path class="cls-1" d="M142.25,86.18a6.76,6.76,0,0,1,2.51-2,6.79,6.79,0,0,1-.39,3.17,1.26,1.26,0,1,1-2.12-1.2Z"/><path class="cls-1" d="M145.68,87.35a10.53,10.53,0,0,1,.59-4.95c.27-.08,2.71,2.6,3.08,3.92a2,2,0,1,1-3.67,1Z"/><path class="cls-1" d="M146.58,76.4a10.64,10.64,0,0,1-.6,4.95,10.55,10.55,0,0,1-3.08-3.92,2,2,0,1,1,3.68-1Z"/><path class="cls-1" d="M151.6,82.32a10.55,10.55,0,0,1-4.95-.59,10.45,10.45,0,0,1,3.92-3.08,2,2,0,1,1,1,3.67Z"/><path class="cls-1" d="M140.65,81.43a10.53,10.53,0,0,1,4.95.59c.08.26-2.6,2.71-3.92,3.08a2,2,0,1,1-1-3.67Z"/><path class="cls-1" d="M149.87,77.6a6.55,6.55,0,0,1-2.51,2,6.85,6.85,0,0,1,.38-3.16,1.26,1.26,0,1,1,2.13,1.19Z"/><path class="cls-1" d="M150.35,85.7a6.61,6.61,0,0,1-2-2.5,6.59,6.59,0,0,1,3.16.38,1.26,1.26,0,1,1-1.19,2.12Z"/><path class="cls-1" d="M141.77,78.08a6.63,6.63,0,0,1,2,2.51,6.71,6.71,0,0,1-3.16-.38,1.26,1.26,0,1,1,1.19-2.13Z"/><path class="cls-3" d="M137.67,68.56a7.85,7.85,0,0,1,2.92-2.29,7.79,7.79,0,0,1-.44,3.69,1.47,1.47,0,1,1-2.48-1.4Z"/><path class="cls-3" d="M141.67,69.92c-.43-1.54.39-5.68.69-5.77s3.16,3,3.59,4.57-.18,3-1.36,3.38S142.1,71.46,141.67,69.92Z"/><path class="cls-3" d="M142.71,57.16c.43,1.54-.38,5.68-.69,5.77s-3.16-3-3.59-4.57.18-3,1.36-3.38S142.28,55.63,142.71,57.16Z"/><path class="cls-3" d="M148.57,64.06c-1.54.43-5.68-.38-5.77-.69s3-3.16,4.57-3.59,3,.18,3.39,1.36S150.11,63.63,148.57,64.06Z"/><path class="cls-3" d="M135.81,63c1.54-.43,5.68.39,5.77.69s-3,3.16-4.57,3.59-3-.18-3.38-1.36S134.28,63.45,135.81,63Z"/><path class="cls-3" d="M146.56,58.57a7.78,7.78,0,0,1-2.93,2.29,8,8,0,0,1,.45-3.69,1.47,1.47,0,1,1,2.48,1.4Z"/><path class="cls-3" d="M147.11,68a7.78,7.78,0,0,1-2.29-2.93,8,8,0,0,1,3.69.45,1.47,1.47,0,1,1-1.4,2.48Z"/><path class="cls-3" d="M137.11,59.12a7.9,7.9,0,0,1,2.3,2.92,7.79,7.79,0,0,1-3.69-.44,1.47,1.47,0,1,1,1.39-2.48Z"/><path class="cls-1" d="M138.09,50.64a7,7,0,0,1,2.53-2,6.82,6.82,0,0,1-.38,3.19,1.27,1.27,0,1,1-2.15-1.2Z"/><path class="cls-1" d="M141.55,51.81a10.72,10.72,0,0,1,.6-5,10.69,10.69,0,0,1,3.11,4,2,2,0,1,1-3.71,1Z"/><path class="cls-1" d="M142.46,40.78a10.69,10.69,0,0,1-.6,5,10.59,10.59,0,0,1-3.11-4,2,2,0,1,1,3.71-1Z"/><path class="cls-1" d="M147.52,46.75a10.69,10.69,0,0,1-5-.6,10.69,10.69,0,0,1,4-3.11,2.26,2.26,0,0,1,2.92,1.18A2.27,2.27,0,0,1,147.52,46.75Z"/><path class="cls-1" d="M136.48,45.84a10.67,10.67,0,0,1,5,.6c.08.27-2.62,2.74-3.95,3.11a2.26,2.26,0,0,1-2.92-1.18A2.28,2.28,0,0,1,136.48,45.84Z"/><path class="cls-1" d="M145.78,42a6.87,6.87,0,0,1-2.53,2,6.87,6.87,0,0,1,.38-3.2A1.28,1.28,0,1,1,145.78,42Z"/><path class="cls-1" d="M146.26,50.16a6.87,6.87,0,0,1-2-2.53,6.87,6.87,0,0,1,3.2.38,1.28,1.28,0,1,1-1.21,2.15Z"/><path class="cls-1" d="M137.61,42.47a6.87,6.87,0,0,1,2,2.53,6.83,6.83,0,0,1-3.19-.38,1.27,1.27,0,1,1,1.2-2.15Z"/><path class="cls-4" d="M120.61,55.14a.62.62,0,0,1,.25-1.18l109.65-6.1L122.09,39.08a.62.62,0,1,1,.1-1.24l117.5,9.52,0,1.24L120.93,55.2A.66.66,0,0,1,120.61,55.14Z"/><path class="cls-4" d="M127.37,101a.61.61,0,0,1-.28-.29.62.62,0,0,1,.3-.82L233.18,50.31l-110.46,29a.63.63,0,0,1-.76-.45.62.62,0,0,1,.44-.76L239.48,47.38l.42,1.16L127.92,101A.59.59,0,0,1,127.37,101Z"/><path class="cls-4" d="M111.13,74.07,88.28,77.68a2.93,2.93,0,0,1-.92-2,2.73,2.73,0,0,1,.37-1.44l22.86-3.61Z"/><path class="cls-3" d="M129.18,151.73a24,24,0,0,1-6.34,6.66,53.68,53.68,0,0,0,12.67,2.67,18.79,18.79,0,0,0-2.7,4.14c-1.33-.18-2.55-.4-3.81-.65v10.08h-4.39v-1H112.48v1.12H108.3v-9.9c-1.55.4-3.09.72-4.68,1a16.64,16.64,0,0,0-2.05-3.82,49.36,49.36,0,0,0,12.81-3.45,27.61,27.61,0,0,1-3.2-2.67,32.77,32.77,0,0,1-4.39,2.42,13.64,13.64,0,0,0-2.84-3.21c5-1.87,8.31-4.53,10.07-7.2h-6.69v4h-4.21V144h13.39c-.4-.83-.83-1.66-1.19-2.34l4.28-1c.54,1,1.26,2.27,1.84,3.39H134v7.88h-4.39v-4h-15l4,.83-1.15,1.48h8l.72-.18Zm-4.57,18.33V167H112.48v3.1Zm0-6.63a43.69,43.69,0,0,1-6.15-2.41,44.79,44.79,0,0,1-5.69,2.41Zm-10.36-9.9a19.58,19.58,0,0,0,4.24,3,21.68,21.68,0,0,0,4.11-3.1h-8.17Z"/><path class="cls-3" d="M169.71,156.77c-1.44,1.12-3.06,2.27-4.64,3.35a14.91,14.91,0,0,0,8.42,9.47,15.52,15.52,0,0,0-2.84,3.49c-4.32-2.05-7.16-5.9-8.93-10.8-.36.25-.75.47-1.11.68,1,4.33.14,8.46-1.69,10a5.37,5.37,0,0,1-4.29,1.69c-.79,0-1.87,0-2.91,0a9.81,9.81,0,0,0-1.16-4.07,27.72,27.72,0,0,0,3.24.18,2,2,0,0,0,1.95-.86,5.28,5.28,0,0,0,1-3.63,57,57,0,0,1-14.54,6.91,17,17,0,0,0-2.23-3.57c5.68-1.22,12.6-4.32,16.16-7.34a12.09,12.09,0,0,0-.54-1.37,60.12,60.12,0,0,1-13,5.87,18.87,18.87,0,0,0-2.12-3.31A45.59,45.59,0,0,0,154,158.11c-.32-.4-.65-.8-1-1.19a48.37,48.37,0,0,1-10,3.78,20,20,0,0,0-2.2-3.35,43.72,43.72,0,0,0,11.59-4h-6.19v-3.64h20.12v3.64h-8a17.59,17.59,0,0,1-2.16,1.66,13.87,13.87,0,0,1,3.17,4.35,48.28,48.28,0,0,0,6.8-5.43ZM145.09,152h-4.21v-8.13h13a14.91,14.91,0,0,0-.86-1.91l4.53-1.3a18.57,18.57,0,0,1,1.55,3.21H172V152h-4.4v-4.24H145.09Z"/><path class="cls-3" d="M191.24,150.37H177.35V147h6.23a34.27,34.27,0,0,0-2.34-4.53l3.31-1.55a33.47,33.47,0,0,1,2.7,4.79L184.84,147h6.4Zm-1,22.31h-7.74v1.52h-3.6V161.78H190.2ZM190,155.23h-11V152h11Zm-11,1.62h11v3.2h-11Zm3.53,8.35v4h4v-4ZM210.93,156v3.53h-20.3V156h4.29c.21-1.19.5-2.52.75-4h-3.24v-3.45h3.85c.15-.9.26-1.8.4-2.67h-5.15v-3.52H210v3.52h-9.11c-.14.87-.29,1.77-.47,2.67h7.45V156Zm-18.5,5.22H209v13.39h-4.18V173.4h-8.38v1.3h-4Zm4,3.67v4.86h8.38v-4.86ZM199.81,152c-.25,1.44-.54,2.77-.79,4h4.9v-4Z"/><polygon class="cls-2" points="131.4 201.14 156 194.95 178.92 200.7 197.71 218.68 204.5 243.45 198.97 265.97 181 285.02 156 291.95 133.27 286.3 114.2 268.06 107.5 243.45 113.37 220.31 131.4 201.14"/><path class="cls-1" d="M185,255.68a6.06,6.06,0,0,1,1.91,2.08,6,6,0,0,1-2.82-.12,1.12,1.12,0,1,1,.91-2Z"/><path class="cls-1" d="M184.23,258.79a9.19,9.19,0,0,1,4.4.18,9.18,9.18,0,0,1-3.24,3,1.75,1.75,0,1,1-1.16-3.17Z"/><path class="cls-1" d="M193.94,258.82a9.32,9.32,0,0,1-4.4-.18,9.18,9.18,0,0,1,3.24-3,1.75,1.75,0,1,1,1.16,3.17Z"/><path class="cls-1" d="M189.07,263.66a9.18,9.18,0,0,1,.18-4.4,9.18,9.18,0,0,1,3,3.24,1.75,1.75,0,1,1-3.17,1.16Z"/><path class="cls-1" d="M189.1,253.94a9.22,9.22,0,0,1-.18,4.41,9.36,9.36,0,0,1-3-3.24,1.75,1.75,0,1,1,3.17-1.17Z"/><path class="cls-1" d="M193.11,261.81a6,6,0,0,1-1.91-2.08,6,6,0,0,1,2.82.12,1.12,1.12,0,1,1-.91,2Z"/><path class="cls-1" d="M186,262.79a6,6,0,0,1,2.07-1.91,6,6,0,0,1-.11,2.82,1.12,1.12,0,1,1-2-.91Z"/><path class="cls-1" d="M192.13,254.7a6.06,6.06,0,0,1-2.08,1.91,5.91,5.91,0,0,1,.12-2.82,1.12,1.12,0,1,1,2,.91Z"/><path class="cls-1" d="M118.94,225.06a6,6,0,0,1,1.91,2.07A5.91,5.91,0,0,1,118,227a1.11,1.11,0,1,1,.91-1.95Z"/><path class="cls-1" d="M118.15,228.16a9.29,9.29,0,0,1,4.4.19,9.36,9.36,0,0,1-3.24,3,1.75,1.75,0,1,1-1.16-3.17Z"/><path class="cls-1" d="M127.86,228.2a9.29,9.29,0,0,1-4.4-.19,9.17,9.17,0,0,1,3.24-3,1.75,1.75,0,1,1,1.16,3.17Z"/><path class="cls-1" d="M123,233a9.23,9.23,0,0,1,.18-4.41,9.32,9.32,0,0,1,3,3.25A1.75,1.75,0,1,1,123,233Z"/><path class="cls-1" d="M123,223.32a9.37,9.37,0,0,1-.18,4.41,9.32,9.32,0,0,1-3-3.25,1.75,1.75,0,1,1,3.17-1.16Z"/><path class="cls-1" d="M127,231.19a6,6,0,0,1-1.91-2.08,5.91,5.91,0,0,1,2.82.12,1.12,1.12,0,1,1-.91,2Z"/><path class="cls-1" d="M119.92,232.17a5.77,5.77,0,0,1,2.07-1.91,6,6,0,0,1-.11,2.82,1.12,1.12,0,1,1-2-.91Z"/><path class="cls-1" d="M126.05,224.07A6,6,0,0,1,124,226a5.91,5.91,0,0,1,.12-2.82,1.12,1.12,0,1,1,2,.9Z"/><path class="cls-3" d="M187.48,243.44a5.87,5.87,0,0,1,2.56,1.17,6,6,0,0,1-2.64,1,1.12,1.12,0,1,1,.08-2.16Z"/><path class="cls-3" d="M188,246.61a9.3,9.3,0,0,1,4.13-1.55,9.32,9.32,0,0,1-1.83,4,1.75,1.75,0,1,1-2.3-2.47Z"/><path class="cls-3" d="M196.92,242.86a9.26,9.26,0,0,1-4.13,1.54,9.35,9.35,0,0,1,1.83-4,1.75,1.75,0,1,1,2.3,2.47Z"/><path class="cls-3" d="M194.32,249.21a9.19,9.19,0,0,1-1.55-4.12,9.25,9.25,0,0,1,4,1.82,1.74,1.74,0,1,1-2.46,2.3Z"/><path class="cls-3" d="M190.56,240.25a9.26,9.26,0,0,1,1.55,4.13,9.2,9.2,0,0,1-4-1.82,1.75,1.75,0,1,1,2.46-2.31Z"/><path class="cls-3" d="M197.32,245.94a6,6,0,0,1-2.57-1.17,5.82,5.82,0,0,1,2.64-1,1.27,1.27,0,0,1,1.37,1.12A1.28,1.28,0,0,1,197.32,245.94Z"/><path class="cls-3" d="M191.15,249.61a5.87,5.87,0,0,1,1.17-2.57,6.12,6.12,0,0,1,1,2.64c0,.78-.53,1.39-1.13,1.37A1.27,1.27,0,0,1,191.15,249.61Z"/><path class="cls-3" d="M193.64,239.77a5.88,5.88,0,0,1-1.16,2.56,5.77,5.77,0,0,1-1-2.64,1.11,1.11,0,1,1,2.15.08Z"/><path class="cls-3" d="M114.69,241a5.88,5.88,0,0,1,2.56,1.16,5.77,5.77,0,0,1-2.64,1,1.11,1.11,0,1,1,.08-2.15Z"/><path class="cls-3" d="M115.17,244.13a9.18,9.18,0,0,1,4.13-1.55,9.25,9.25,0,0,1-1.83,4,1.74,1.74,0,1,1-2.3-2.46Z"/><path class="cls-3" d="M124.13,240.37a9.18,9.18,0,0,1-4.13,1.55,9.25,9.25,0,0,1,1.83-4,1.74,1.74,0,1,1,2.3,2.46Z"/><path class="cls-3" d="M121.53,246.73A9.18,9.18,0,0,1,120,242.6a9.25,9.25,0,0,1,4,1.83,1.74,1.74,0,1,1-2.46,2.3Z"/><path class="cls-3" d="M117.77,237.77a9.18,9.18,0,0,1,1.55,4.13,9.25,9.25,0,0,1-4-1.83,1.74,1.74,0,1,1,2.46-2.3Z"/><path class="cls-3" d="M124.53,243.45a5.76,5.76,0,0,1-2.57-1.17,6.12,6.12,0,0,1,2.64-1,1.28,1.28,0,0,1,1.37,1.13A1.27,1.27,0,0,1,124.53,243.45Z"/><path class="cls-3" d="M118.36,247.12a5.87,5.87,0,0,1,1.17-2.56,6,6,0,0,1,1,2.64,1.12,1.12,0,1,1-2.16-.08Z"/><path class="cls-3" d="M120.86,237.28a6,6,0,0,1-1.17,2.57,5.77,5.77,0,0,1-1-2.64c0-.77.53-1.39,1.12-1.36A1.27,1.27,0,0,1,120.86,237.28Z"/><path class="cls-1" d="M185.29,232a6.13,6.13,0,0,1,2.82.15A6,6,0,0,1,186,234a1.12,1.12,0,1,1-.72-2Z"/><path class="cls-1" d="M186.9,234.76a9.33,9.33,0,0,1,3.28-2.95,9.21,9.21,0,0,1-.24,4.41,1.75,1.75,0,1,1-3-1.46Z"/><path class="cls-1" d="M193.88,228a9.35,9.35,0,0,1-3.28,2.94,9.26,9.26,0,0,1,.23-4.4,1.75,1.75,0,1,1,3,1.46Z"/><path class="cls-1" d="M193.77,234.87a9.51,9.51,0,0,1-3-3.28,9.31,9.31,0,0,1,4.41.23,1.75,1.75,0,1,1-1.46,3.05Z"/><path class="cls-1" d="M187,227.89a9.18,9.18,0,0,1,2.94,3.28,9.17,9.17,0,0,1-4.4-.24,1.75,1.75,0,1,1,1.46-3Z"/><path class="cls-1" d="M195.37,230.72a6,6,0,0,1-2.82-.15,6,6,0,0,1,2.1-1.89,1.12,1.12,0,1,1,.72,2Z"/><path class="cls-1" d="M191,236.39a6,6,0,0,1,.15-2.82,6,6,0,0,1,1.89,2.1,1.12,1.12,0,1,1-2,.72Z"/><path class="cls-1" d="M189.7,226.31a6,6,0,0,1-.15,2.82,6,6,0,0,1-1.89-2.1,1.12,1.12,0,1,1,2-.72Z"/><path class="cls-1" d="M116.61,256.21a6,6,0,0,1,2.82.15,6,6,0,0,1-2.1,1.89,1.12,1.12,0,1,1-.72-2Z"/><path class="cls-1" d="M118.21,259a9.4,9.4,0,0,1,3.28-2.95,9.26,9.26,0,0,1-.23,4.4,1.75,1.75,0,1,1-3.05-1.45Z"/><path class="cls-1" d="M125.19,252.22a9.23,9.23,0,0,1-3.28,2.95,9.17,9.17,0,0,1,.24-4.4,1.74,1.74,0,1,1,3,1.45Z"/><path class="cls-1" d="M125.08,259.09a9.18,9.18,0,0,1-2.94-3.28,9.43,9.43,0,0,1,4.4.24,1.75,1.75,0,1,1-1.46,3Z"/><path class="cls-1" d="M118.32,252.12a9.33,9.33,0,0,1,3,3.28,9.47,9.47,0,0,1-4.41-.24,1.75,1.75,0,1,1,1.46-3Z"/><path class="cls-1" d="M126.68,255a6.09,6.09,0,0,1-2.81-.15,5.81,5.81,0,0,1,2.09-1.89,1.12,1.12,0,1,1,.72,2Z"/><path class="cls-1" d="M122.28,260.61a5.83,5.83,0,0,1,.15-2.81,6,6,0,0,1,1.88,2.1,1.11,1.11,0,1,1-2,.71Z"/><path class="cls-1" d="M121,250.54a5.87,5.87,0,0,1-.15,2.82,6,6,0,0,1-1.88-2.1,1.11,1.11,0,1,1,2-.72Z"/><path class="cls-3" d="M178.06,221.05a6,6,0,0,1,2.63-1,5.77,5.77,0,0,1-1.15,2.58,1.12,1.12,0,1,1-1.48-1.57Z"/><path class="cls-3" d="M180.65,222.94a9.33,9.33,0,0,1,1.8-4A9.26,9.26,0,0,1,184,223a1.75,1.75,0,1,1-3.38-.08Z"/><path class="cls-3" d="M184.27,213.91a9.21,9.21,0,0,1-1.8,4,9.26,9.26,0,0,1-1.58-4.11,1.75,1.75,0,1,1,3.38.08Z"/><path class="cls-3" d="M187,220.23a9.34,9.34,0,0,1-4-1.79,9.37,9.37,0,0,1,4.12-1.58,1.74,1.74,0,1,1-.09,3.37Z"/><path class="cls-3" d="M178,216.62a9.34,9.34,0,0,1,4,1.79,9.37,9.37,0,0,1-4.12,1.58,1.74,1.74,0,1,1,.09-3.37Z"/><path class="cls-3" d="M186.74,215.79a5.77,5.77,0,0,1-2.63,1,5.86,5.86,0,0,1,1.14-2.57,1.12,1.12,0,1,1,1.49,1.56Z"/><path class="cls-3" d="M185,222.76a6,6,0,0,1-1-2.63,6,6,0,0,1,2.58,1.15,1.12,1.12,0,1,1-1.57,1.48Z"/><path class="cls-3" d="M179.77,214.08a6,6,0,0,1,1,2.64,6.06,6.06,0,0,1-2.58-1.15,1.12,1.12,0,1,1,1.57-1.49Z"/><path class="cls-3" d="M125.23,271.19a5.73,5.73,0,0,1,2.63-1,5.91,5.91,0,0,1-1.15,2.57,1.11,1.11,0,1,1-1.48-1.56Z"/><path class="cls-3" d="M127.82,273.07a9.27,9.27,0,0,1,1.8-4,9.37,9.37,0,0,1,1.58,4.12,1.75,1.75,0,1,1-3.38-.09Z"/><path class="cls-3" d="M131.44,264.05a9.45,9.45,0,0,1-1.8,4,9.37,9.37,0,0,1-1.58-4.12,1.75,1.75,0,1,1,3.38.09Z"/><path class="cls-3" d="M134.14,270.36a9.28,9.28,0,0,1-4-1.79,9.37,9.37,0,0,1,4.12-1.58,1.74,1.74,0,1,1-.09,3.37Z"/><path class="cls-3" d="M125.12,266.75a9.21,9.21,0,0,1,4,1.8,9.37,9.37,0,0,1-4.12,1.58,1.75,1.75,0,1,1,.09-3.38Z"/><path class="cls-3" d="M133.91,265.93a6,6,0,0,1-2.64,1,6,6,0,0,1,1.15-2.58,1.12,1.12,0,1,1,1.49,1.57Z"/><path class="cls-3" d="M132.2,272.9a5.76,5.76,0,0,1-1-2.64,6,6,0,0,1,2.57,1.15,1.12,1.12,0,1,1-1.56,1.49Z"/><path class="cls-3" d="M126.94,264.22a6,6,0,0,1,1,2.63,6,6,0,0,1-2.58-1.15,1.12,1.12,0,1,1,1.57-1.48Z"/><path class="cls-1" d="M168.25,214.5a6,6,0,0,1,2.08-1.91,5.94,5.94,0,0,1-.13,2.82,1.11,1.11,0,1,1-1.95-.91Z"/><path class="cls-1" d="M171.35,215.3a9.46,9.46,0,0,1,.19-4.41,9.22,9.22,0,0,1,3,3.25,1.75,1.75,0,1,1-3.17,1.16Z"/><path class="cls-1" d="M171.4,205.58a9.21,9.21,0,0,1-.19,4.41,9.51,9.51,0,0,1-3-3.25,1.75,1.75,0,1,1,3.17-1.16Z"/><path class="cls-1" d="M176.24,210.46a9.2,9.2,0,0,1-4.41-.19,9.41,9.41,0,0,1,3.25-3,1.75,1.75,0,1,1,1.16,3.17Z"/><path class="cls-1" d="M166.52,210.41a9.42,9.42,0,0,1,4.4.19,9.13,9.13,0,0,1-3.25,3,1.74,1.74,0,1,1-1.15-3.17Z"/><path class="cls-1" d="M174.39,206.42a6.06,6.06,0,0,1-2.08,1.91,5.94,5.94,0,0,1,.13-2.82,1.11,1.11,0,1,1,1.95.91Z"/><path class="cls-1" d="M175.36,213.53a6,6,0,0,1-1.91-2.08,5.94,5.94,0,0,1,2.82.13,1.11,1.11,0,1,1-.91,1.95Z"/><path class="cls-1" d="M167.28,207.39a6,6,0,0,1,1.91,2.08,5.94,5.94,0,0,1-2.82-.13,1.11,1.11,0,1,1,.91-2Z"/><path class="cls-1" d="M137.5,280.52a5.82,5.82,0,0,1,2.07-1.9,5.87,5.87,0,0,1-.12,2.81,1.11,1.11,0,1,1-1.95-.91Z"/><path class="cls-1" d="M140.6,281.32a9.47,9.47,0,0,1,.19-4.41,9.22,9.22,0,0,1,3,3.25,1.75,1.75,0,1,1-3.17,1.16Z"/><path class="cls-1" d="M140.65,271.6a9.21,9.21,0,0,1-.19,4.41,9.41,9.41,0,0,1-3-3.25,1.75,1.75,0,1,1,3.17-1.16Z"/><path class="cls-1" d="M145.49,276.49a9.3,9.3,0,0,1-4.41-.2,9.41,9.41,0,0,1,3.25-3,1.75,1.75,0,1,1,1.16,3.18Z"/><path class="cls-1" d="M135.77,276.43a9.25,9.25,0,0,1,4.4.2,9.32,9.32,0,0,1-3.25,3,1.75,1.75,0,1,1-1.15-3.18Z"/><path class="cls-1" d="M143.64,272.44a6.06,6.06,0,0,1-2.08,1.91,6,6,0,0,1,.12-2.82,1.28,1.28,0,0,1,1.57-.82A1.27,1.27,0,0,1,143.64,272.44Z"/><path class="cls-1" d="M144.61,279.55a6,6,0,0,1-1.91-2.07,5.91,5.91,0,0,1,2.82.12,1.11,1.11,0,1,1-.91,1.95Z"/><path class="cls-1" d="M136.53,273.41a5.91,5.91,0,0,1,1.9,2.08,6,6,0,0,1-2.81-.12,1.12,1.12,0,1,1,.91-2Z"/><path class="cls-3" d="M156,212a6,6,0,0,1,1.17-2.57,5.87,5.87,0,0,1,1,2.64,1.28,1.28,0,0,1-1.13,1.37A1.27,1.27,0,0,1,156,212Z"/><path class="cls-3" d="M159.18,211.54a9.43,9.43,0,0,1-1.54-4.13,9.37,9.37,0,0,1,4,1.83,1.75,1.75,0,1,1-2.47,2.3Z"/><path class="cls-3" d="M155.45,202.57A9.47,9.47,0,0,1,157,206.7a9.2,9.2,0,0,1-4-1.83,1.75,1.75,0,1,1,2.48-2.3Z"/><path class="cls-3" d="M161.8,205.19a9.47,9.47,0,0,1-4.13,1.54,9.13,9.13,0,0,1,1.83-4,1.75,1.75,0,1,1,2.3,2.47Z"/><path class="cls-3" d="M152.83,208.93a9.21,9.21,0,0,1,4.13-1.54,9.35,9.35,0,0,1-1.83,4,1.75,1.75,0,1,1-2.3-2.47Z"/><path class="cls-3" d="M158.53,202.18a5.92,5.92,0,0,1-1.18,2.57,6,6,0,0,1-1-2.65,1.12,1.12,0,1,1,2.16.08Z"/><path class="cls-3" d="M162.19,208.36a5.92,5.92,0,0,1-2.57-1.18,6,6,0,0,1,2.64-1c.78,0,1.39.53,1.37,1.13A1.29,1.29,0,0,1,162.19,208.36Z"/><path class="cls-3" d="M152.35,205.84a6.11,6.11,0,0,1,2.57,1.17,5.87,5.87,0,0,1-2.65,1,1.12,1.12,0,1,1,.08-2.16Z"/><path class="cls-3" d="M153.39,284.8a6,6,0,0,1,1.17-2.56,6.06,6.06,0,0,1,1,2.64,1.28,1.28,0,0,1-1.13,1.36A1.26,1.26,0,0,1,153.39,284.8Z"/><path class="cls-3" d="M156.56,284.33a9.2,9.2,0,0,1-1.54-4.14,9.34,9.34,0,0,1,4,1.84,1.75,1.75,0,1,1-2.47,2.3Z"/><path class="cls-3" d="M152.82,275.36a9.13,9.13,0,0,1,1.54,4.13,9.47,9.47,0,0,1-4-1.83,2,2,0,0,1-.26-2.76A2,2,0,0,1,152.82,275.36Z"/><path class="cls-3" d="M159.18,278a9.2,9.2,0,0,1-4.14,1.54,9.39,9.39,0,0,1,1.84-4,1.75,1.75,0,1,1,2.3,2.47Z"/><path class="cls-3" d="M150.21,281.71a9.13,9.13,0,0,1,4.13-1.54,9.29,9.29,0,0,1-1.84,4,1.74,1.74,0,1,1-2.29-2.47Z"/><path class="cls-3" d="M155.9,275a6,6,0,0,1-1.17,2.56,6.06,6.06,0,0,1-1-2.64c0-.78.54-1.39,1.13-1.36A1.26,1.26,0,0,1,155.9,275Z"/><path class="cls-3" d="M159.56,281.14A6,6,0,0,1,157,280a5.94,5.94,0,0,1,2.64-1c.78,0,1.39.54,1.36,1.13A1.26,1.26,0,0,1,159.56,281.14Z"/><path class="cls-3" d="M149.73,278.63a5.87,5.87,0,0,1,2.56,1.17,6,6,0,0,1-2.64,1,1.11,1.11,0,1,1,.08-2.15Z"/><path class="cls-1" d="M144.55,214.18a5.85,5.85,0,0,1,.16-2.82,6,6,0,0,1,1.88,2.1,1.12,1.12,0,1,1-2,.72Z"/><path class="cls-1" d="M147.33,212.58a9.28,9.28,0,0,1-2.94-3.29,9.33,9.33,0,0,1,4.4.25,1.75,1.75,0,1,1-1.46,3Z"/><path class="cls-1" d="M140.58,205.59a9.37,9.37,0,0,1,2.94,3.28,9.17,9.17,0,0,1-4.4-.24,1.75,1.75,0,1,1,1.46-3Z"/><path class="cls-1" d="M147.45,205.71a9.29,9.29,0,0,1-3.29,2.94,9.33,9.33,0,0,1,.25-4.4,1.75,1.75,0,1,1,3,1.46Z"/><path class="cls-1" d="M140.46,212.46a9.19,9.19,0,0,1,3.29-2.94,9.33,9.33,0,0,1-.25,4.4,1.75,1.75,0,1,1-3-1.46Z"/><path class="cls-1" d="M143.31,204.1a6.11,6.11,0,0,1-.16,2.82,5.85,5.85,0,0,1-1.88-2.1,1.12,1.12,0,1,1,2-.72Z"/><path class="cls-1" d="M149,208.52a6,6,0,0,1-2.82-.16,6,6,0,0,1,2.1-1.88,1.12,1.12,0,1,1,.72,2Z"/><path class="cls-1" d="M138.89,209.76a6,6,0,0,1,2.82.16,6,6,0,0,1-2.11,1.88,1.27,1.27,0,0,1-1.68-.55A1.29,1.29,0,0,1,138.89,209.76Z"/><path class="cls-1" d="M168.64,282.91a6.11,6.11,0,0,1,.16-2.82,5.85,5.85,0,0,1,1.88,2.1,1.28,1.28,0,0,1-.55,1.69A1.29,1.29,0,0,1,168.64,282.91Z"/><path class="cls-1" d="M171.42,281.31a9.38,9.38,0,0,1-2.94-3.29,9.37,9.37,0,0,1,4.41.25,1.75,1.75,0,1,1-1.47,3Z"/><path class="cls-1" d="M164.67,274.32a9.24,9.24,0,0,1,3,3.29,9.37,9.37,0,0,1-4.41-.25,1.74,1.74,0,1,1,1.46-3Z"/><path class="cls-1" d="M171.54,274.44a9.28,9.28,0,0,1-3.28,2.94,9.3,9.3,0,0,1,.24-4.4,1.75,1.75,0,1,1,3,1.46Z"/><path class="cls-1" d="M164.55,281.19a9.28,9.28,0,0,1,3.29-2.94,9.3,9.3,0,0,1-.24,4.4,1.75,1.75,0,1,1-3-1.46Z"/><path class="cls-1" d="M167.4,272.83a5.85,5.85,0,0,1-.16,2.82,6,6,0,0,1-1.88-2.1,1.12,1.12,0,1,1,2-.72Z"/><path class="cls-1" d="M173.06,277.25a6,6,0,0,1-2.82-.16,6,6,0,0,1,2.11-1.88,1.27,1.27,0,0,1,1.68.56A1.28,1.28,0,0,1,173.06,277.25Z"/><path class="cls-1" d="M163,278.49a6,6,0,0,1,2.82.16,6,6,0,0,1-2.1,1.88,1.12,1.12,0,1,1-.72-2Z"/><path class="cls-3" d="M133.61,221.39a6,6,0,0,1-1-2.63,6,6,0,0,1,2.58,1.15,1.12,1.12,0,1,1-1.57,1.48Z"/><path class="cls-3" d="M135.49,218.8a9.22,9.22,0,0,1-4-1.8,9.26,9.26,0,0,1,4.12-1.57,1.74,1.74,0,1,1-.1,3.37Z"/><path class="cls-3" d="M126.48,215.17a9.22,9.22,0,0,1,4,1.8,9.16,9.16,0,0,1-4.12,1.57,1.74,1.74,0,1,1,.1-3.37Z"/><path class="cls-3" d="M132.8,212.48a9.22,9.22,0,0,1-1.8,4,9.21,9.21,0,0,1-1.57-4.12,1.74,1.74,0,1,1,3.37.1Z"/><path class="cls-3" d="M129.17,221.49a9.34,9.34,0,0,1,1.8-4,9.31,9.31,0,0,1,1.58,4.12,1.75,1.75,0,1,1-3.38-.1Z"/><path class="cls-3" d="M128.36,212.7a6,6,0,0,1,1,2.64,6,6,0,0,1-2.58-1.16,1.12,1.12,0,1,1,1.57-1.48Z"/><path class="cls-3" d="M135.33,214.42a5.89,5.89,0,0,1-2.63,1,5.79,5.79,0,0,1,1.15-2.57,1.11,1.11,0,1,1,1.48,1.56Z"/><path class="cls-3" d="M126.64,219.67a6,6,0,0,1,2.63-1,5.77,5.77,0,0,1-1.15,2.58,1.12,1.12,0,1,1-1.48-1.57Z"/><path class="cls-3" d="M183.64,274.32a6,6,0,0,1-1-2.63,5.89,5.89,0,0,1,2.58,1.15,1.12,1.12,0,1,1-1.57,1.48Z"/><path class="cls-3" d="M185.52,271.73a9.34,9.34,0,0,1-4-1.8,9.37,9.37,0,0,1,4.12-1.58,1.75,1.75,0,1,1-.1,3.38Z"/><path class="cls-3" d="M176.51,268.1a9.33,9.33,0,0,1,4,1.8,9.26,9.26,0,0,1-4.12,1.57,1.74,1.74,0,1,1,.09-3.37Z"/><path class="cls-3" d="M182.83,265.41a9.22,9.22,0,0,1-1.8,4,9.38,9.38,0,0,1-1.57-4.12,1.74,1.74,0,1,1,3.37.1Z"/><path class="cls-3" d="M179.2,274.42a9.34,9.34,0,0,1,1.8-4,9.14,9.14,0,0,1,1.58,4.12,1.75,1.75,0,1,1-3.38-.1Z"/><path class="cls-3" d="M178.39,265.63a5.89,5.89,0,0,1,1,2.63,5.86,5.86,0,0,1-2.58-1.15,1.12,1.12,0,1,1,1.57-1.48Z"/><path class="cls-3" d="M185.36,267.35a5.89,5.89,0,0,1-2.63,1,6,6,0,0,1,1.15-2.58,1.12,1.12,0,1,1,1.48,1.57Z"/><path class="cls-3" d="M176.67,272.6a6,6,0,0,1,2.64-1,6,6,0,0,1-1.16,2.58,1.12,1.12,0,1,1-1.48-1.57Z"/><path class="cls-4" d="M181.56,287a.5.5,0,0,1-.43-.25l-22.7-38.85a.5.5,0,1,1,.87-.51L182,286.28a.5.5,0,0,1-.17.68A.48.48,0,0,1,181.56,287Z"/><path class="cls-4" d="M153.64,240.22a.51.51,0,0,1-.43-.24l-22.7-38.86a.49.49,0,0,1,.18-.68.49.49,0,0,1,.68.18l22.7,38.85a.51.51,0,0,1-.18.69A.54.54,0,0,1,153.64,240.22Z"/><path class="cls-4" d="M160.23,241.59a.5.5,0,0,1-.25-.93L198.83,218a.5.5,0,1,1,.5.86l-38.85,22.7A.47.47,0,0,1,160.23,241.59Z"/><path class="cls-4" d="M113.42,269.51a.5.5,0,0,1-.25-.93L152,245.88a.5.5,0,0,1,.5.86l-38.86,22.7A.45.45,0,0,1,113.42,269.51Z"/><path class="cls-4" d="M200.14,267.62a.38.38,0,0,1-.23-.06l-39.6-21.38a.5.5,0,0,1,.48-.88l39.59,21.39a.49.49,0,0,1,.2.67A.49.49,0,0,1,200.14,267.62Z"/><path class="cls-4" d="M152,242.16a.46.46,0,0,1-.23-.06l-39.6-21.39a.49.49,0,0,1-.2-.67.5.5,0,0,1,.68-.21l39.59,21.39a.5.5,0,0,1,.2.68A.49.49,0,0,1,152,242.16Z"/><path class="cls-4" d="M158.29,239.9a.53.53,0,0,1-.24-.06.5.5,0,0,1-.2-.68l21.39-39.59a.5.5,0,0,1,.88.48l-21.39,39.59A.49.49,0,0,1,158.29,239.9Z"/><path class="cls-4" d="M132.83,288.09a.48.48,0,0,1-.24-.06.5.5,0,0,1-.2-.68l21.39-39.59a.49.49,0,0,1,.67-.2.48.48,0,0,1,.2.67l-21.38,39.6A.5.5,0,0,1,132.83,288.09Z"/><path class="cls-4" d="M206,244H161a.5.5,0,0,1,0-1h45a.5.5,0,0,1,0,1Z"/><path class="cls-4" d="M151.5,244.45h-45a.5.5,0,0,1,0-1h45a.5.5,0,0,1,0,1Z"/><path class="cls-4" d="M156,239.45a.5.5,0,0,1-.5-.5V194a.5.5,0,0,1,.5-.5.5.5,0,0,1,.5.5v45A.5.5,0,0,1,156,239.45Z"/><path class="cls-4" d="M156.5,294a.5.5,0,0,1-.5-.5v-45a.5.5,0,0,1,.5-.5.5.5,0,0,1,.5.5v45A.5.5,0,0,1,156.5,294Z"/><circle class="cls-4" cx="156" cy="243.95" r="2"/></g></svg>