<svg xmlns="http://www.w3.org/2000/svg" viewBox="0 0 64.87 69.31"><defs><style>.cls-1{fill:#fff;}.cls-2{fill:#3bb5a0;}.cls-3{fill:#4295a0;}.cls-4{fill:#3bcca0;}.cls-5{fill:#42aca0;}</style></defs><title>葉菜</title><g id="圖層_2" data-name="圖層 2"><g id="圖層_1-2" data-name="圖層 1"><path class="cls-1" d="M11.8,69.31a3.74,3.74,0,0,1-3.39-2.17,3.69,3.69,0,0,1-.05-3,3.78,3.78,0,0,1,.29-1.18l.09-.18c.42-5.29.63-10.64.64-15.93-.46-.72-.93-1.43-1.42-2.12a29.29,29.29,0,0,0-2.17-2.74,20.69,20.69,0,0,1-1.87-2.41,24.43,24.43,0,0,1-3.5-17.8A24.81,24.81,0,0,1,7.06,9.19L8.38,7.84l1.76.68a22.26,22.26,0,0,1,6.6,4c.13-.23.26-.46.4-.69A29,29,0,0,1,29.55.8l1.7-.8,1.41,1.25a25.48,25.48,0,0,1,7.25,10.94,24.79,24.79,0,0,1,1,4.27l.87-.58a33.49,33.49,0,0,1,17.77-5.22l1.81,0,.79,1.62a26.35,26.35,0,0,1,2.6,14A25.6,25.6,0,0,1,60.51,38a21.74,21.74,0,0,1-1.66,10.56,22.13,22.13,0,0,1-8.06,9.55c-1.93,1.34-5.52,3.85-10.45,4l-.54,0-1,0a18.68,18.68,0,0,1-5.09-.85,13.82,13.82,0,0,0-3.53-.44c-.39,0-.79,0-1.2,0-5.08,2.89-10.32,5.59-15.58,8A3.75,3.75,0,0,1,11.8,69.31Z"/><path class="cls-2" d="M29.18,50.38a59,59,0,0,0,1.46-6.61c.71-4.49.31-5.32.89-8.23a26.64,26.64,0,0,1,4.62-10.3,27.78,27.78,0,0,1,7.2-6.79A30.75,30.75,0,0,1,59.6,13.7a23.41,23.41,0,0,1,2.32,12.42,23.81,23.81,0,0,1-5.59,13c-1.78,2.22-4.81,6-10,7.67a20.68,20.68,0,0,1-7.84,1.37A24.64,24.64,0,0,0,29.18,50.38Z"/><path class="cls-3" d="M50.9,18.4A11,11,0,0,0,50,22c0,.62,0,1.23,0,1.84s0,1.24,0,1.9c0,0,0,0,0,0l0,0a5.08,5.08,0,0,1-.6-1.86,6.79,6.79,0,0,1,.12-2A10.78,10.78,0,0,1,50,20.08a9.52,9.52,0,0,1,.88-1.71s0,0,0,0S50.91,18.39,50.9,18.4Z"/><path class="cls-3" d="M45.8,20.75a12.32,12.32,0,0,0-.88,2.63,12.46,12.46,0,0,0-.3,2.72,20.48,20.48,0,0,0,.31,2.7c.13.9.33,1.78.53,2.71,0,0,0,0,0,0a0,0,0,0,1,0,0,7.28,7.28,0,0,1-1.17-2.6,9.16,9.16,0,0,1-.18-2.86,13.29,13.29,0,0,1,.52-2.8,12.32,12.32,0,0,1,1.16-2.56s0,0,.05,0S45.8,20.73,45.8,20.75Z"/><path class="cls-3" d="M59,26.12a14.49,14.49,0,0,1-2.13.64,15,15,0,0,1-2.22.31,8.93,8.93,0,0,1-2.25,0,6.79,6.79,0,0,1-2.13-.72s0,0,0,0,0,0,0,0c.76,0,1.48.05,2.2.08s1.43.16,2.15.18a15.76,15.76,0,0,0,2.17-.09A17.36,17.36,0,0,0,59,26.06a0,0,0,0,1,.05,0S59,26.12,59,26.12Z"/><path class="cls-3" d="M39.44,24.61q-.16,1.71-.18,3.42c0,1.14,0,2.28.08,3.42s.25,2.26.34,3.39.19,2.27.23,3.43c0,0,0,0,0,0s0,0,0,0A16.19,16.19,0,0,1,39,34.93a22.31,22.31,0,0,1-.2-3.46c0-1.16,0-2.31.14-3.46s.26-2.28.46-3.41c0,0,0,0,0,0S39.44,24.59,39.44,24.61Z"/><path class="cls-3" d="M56.4,31.85a17.91,17.91,0,0,1-2.71.68,18.92,18.92,0,0,1-2.81.24,12.11,12.11,0,0,1-2.82-.21,9.28,9.28,0,0,1-2.64-1,0,0,0,0,1,0,0l0,0c.94.11,1.84.25,2.74.37s1.8.29,2.72.34a17.9,17.9,0,0,0,2.74,0,19.46,19.46,0,0,0,2.74-.4s0,0,0,0S56.42,31.85,56.4,31.85Z"/><path class="cls-3" d="M53,37.19a31.4,31.4,0,0,1-3.18.94,33.23,33.23,0,0,1-3.29.56,18.55,18.55,0,0,1-3.33.18,14.16,14.16,0,0,1-3.3-.56,0,0,0,0,1,0-.05s0,0,0,0c1.12-.06,2.21-.06,3.3-.08s2.18,0,3.27,0a29.69,29.69,0,0,0,3.27-.34A29.34,29.34,0,0,0,53,37.12a.05.05,0,0,1,0,0S53,37.19,53,37.19Z"/><path class="cls-3" d="M34.46,32.51a24.34,24.34,0,0,0-.07,2.7,21.88,21.88,0,0,0,.25,2.68c.14.88.38,1.74.55,2.61s.37,1.75.51,2.66c0,0,0,0,0,.05s0,0,0,0a9.33,9.33,0,0,1-1.14-2.51A12.63,12.63,0,0,1,34.07,38a20.88,20.88,0,0,1,0-2.74,20.28,20.28,0,0,1,.35-2.71s0,0,0,0S34.46,32.49,34.46,32.51Z"/><path class="cls-3" d="M48.85,42.08c-1.06.36-2.13.66-3.21.91s-2.2.43-3.31.56a19.76,19.76,0,0,1-3.35.19,14.29,14.29,0,0,1-3.31-.53s0,0,0,0,0,0,0,0c1.13-.07,2.22-.08,3.32-.11s2.2,0,3.3-.05,2.19-.17,3.28-.34A30.72,30.72,0,0,0,48.83,42s0,0,0,0A.05.05,0,0,1,48.85,42.08Z"/><path class="cls-3" d="M11.63,64.66a268.94,268.94,0,0,0,44-45.35A269.18,269.18,0,0,1,12.77,66a.89.89,0,0,1-1.16-1.35Z"/><path class="cls-2" d="M20.09,45.72a59.55,59.55,0,0,0-1.28-6.14c-1.09-4.07-1.71-4.63-2.33-7.31a25.74,25.74,0,0,1,3.1-18.78A26.13,26.13,0,0,1,30.77,3.57a22.58,22.58,0,0,1,6.44,9.7,23.16,23.16,0,0,1,.33,13c-.61,2.53-1.63,6.81-5.16,10.14a17.31,17.31,0,0,1-5.74,4A20.92,20.92,0,0,0,20.09,45.72Z"/><path class="cls-3" d="M25.58,10.71a10.74,10.74,0,0,0,.66,3.39c.2.53.5,1,.7,1.54a17.49,17.49,0,0,1,.63,1.64,0,0,0,0,1,0,0h0A4.33,4.33,0,0,1,26.31,16a5.73,5.73,0,0,1-.61-1.71,8.9,8.9,0,0,1-.27-1.78,8.72,8.72,0,0,1,.08-1.77s0,0,0,0A0,0,0,0,1,25.58,10.71Z"/><path class="cls-3" d="M22.39,14.55a12,12,0,0,0,.28,2.54,11.61,11.61,0,0,0,.78,2.4,23.18,23.18,0,0,0,1.24,2.18c.43.72.91,1.4,1.4,2.14a0,0,0,0,1,0,.05h0a6.89,6.89,0,0,1-1.94-1.79,8.7,8.7,0,0,1-1.18-2.36,12.69,12.69,0,0,1-.6-2.56,11.31,11.31,0,0,1,0-2.6s0,0,0,0S22.38,14.53,22.39,14.55Z"/><path class="cls-3" d="M34.89,14.33a12.88,12.88,0,0,1-1.44,1.32,16,16,0,0,1-1.65,1.07,7.55,7.55,0,0,1-1.82.79,5.48,5.48,0,0,1-2,.14s0,0,0,0l0,0c.61-.3,1.2-.51,1.78-.75s1.2-.38,1.78-.63a12.84,12.84,0,0,0,1.7-.85,13.82,13.82,0,0,0,1.59-1.07,0,0,0,0,1,0,0A0,0,0,0,1,34.89,14.33Z"/><path class="cls-3" d="M18.75,20.13c.34,1,.72,2,1.14,3S20.74,25,21.22,26s1.05,1.82,1.53,2.76,1,1.86,1.42,2.84c0,0,0,0,0,.05s0,0,0,0a14.26,14.26,0,0,1-2-2.53,20.57,20.57,0,0,1-1.42-2.86c-.43-1-.81-2-1.16-3s-.62-2-.87-3.06c0,0,0,0,0,0A0,0,0,0,1,18.75,20.13Z"/><path class="cls-3" d="M34.93,20.14A14.92,14.92,0,0,1,33,21.7a15.73,15.73,0,0,1-2.15,1.23,9.64,9.64,0,0,1-2.34.85,7.64,7.64,0,0,1-2.48.09s0,0,0,0,0,0,0,0c.79-.27,1.56-.48,2.32-.71s1.54-.4,2.29-.69a14.78,14.78,0,0,0,2.18-1,16.79,16.79,0,0,0,2-1.32s0,0,0,0A0,0,0,0,1,34.93,20.14Z"/><path class="cls-3" d="M34.17,25.91A25.13,25.13,0,0,1,32,27.86a26.37,26.37,0,0,1-2.4,1.67A15,15,0,0,1,27,30.9a11.23,11.23,0,0,1-2.85.71,0,0,0,0,1,0,0s0,0,0,0c.86-.47,1.73-.87,2.59-1.29s1.75-.77,2.6-1.21a26.78,26.78,0,0,0,2.47-1.47,27.86,27.86,0,0,0,2.33-1.71h.05A0,0,0,0,1,34.17,25.91Z"/><path class="cls-3" d="M17.7,28.64a21.9,21.9,0,0,0,1,2.3,19,19,0,0,0,1.19,2.17c.44.7,1,1.34,1.41,2s.93,1.37,1.36,2.1c0,0,0,0,0,.05h0a8.79,8.79,0,0,1-1.88-1.72,12.35,12.35,0,0,1-1.34-2.16,20.68,20.68,0,0,1-1-2.32,18.72,18.72,0,0,1-.7-2.43.05.05,0,0,1,0,0S17.69,28.62,17.7,28.64Z"/><path class="cls-3" d="M32.69,31.55a25.42,25.42,0,0,1-2.2,1.94,27.41,27.41,0,0,1-2.42,1.68,16.18,16.18,0,0,1-2.6,1.38,11.69,11.69,0,0,1-2.86.74s0,0,0,0,0,0,0,0c.86-.48,1.73-.89,2.59-1.32s1.76-.78,2.61-1.23a27.1,27.1,0,0,0,2.49-1.47,28.22,28.22,0,0,0,2.36-1.7s0,0,0,0A0,0,0,0,1,32.69,31.55Z"/><path class="cls-3" d="M11.28,64.2A249.41,249.41,0,0,0,29.66,9.78,250.84,250.84,0,0,1,12.91,64.94a.9.9,0,0,1-1.18.46.89.89,0,0,1-.46-1.17Z"/><path class="cls-4" d="M27.37,58.41A50.08,50.08,0,0,0,30,53.84c1.6-3.15,1.52-3.86,2.63-5.88a21.75,21.75,0,0,1,5.75-6.59,21.19,21.19,0,0,1,6.69-3.44,22,22,0,0,1,12.56,0,19,19,0,0,1-1.39,9.68A19.38,19.38,0,0,1,49.16,56c-1.79,1.25-4.83,3.36-8.9,3.48a14.78,14.78,0,0,1-5.83-.71A17.55,17.55,0,0,0,27.37,58.41Z"/><path class="cls-5" d="M50.38,39.54a9.55,9.55,0,0,0-1.44,2.51c-.17.45-.24.92-.41,1.36A13.69,13.69,0,0,1,48,44.77a0,0,0,0,1-.05,0s0,0,0,0a3.31,3.31,0,0,1,0-1.53,4.62,4.62,0,0,1,.58-1.42,8.42,8.42,0,0,1,.85-1.26,7.08,7.08,0,0,1,1.06-1.06s0,0,.05,0A0,0,0,0,1,50.38,39.54Z"/><path class="cls-5" d="M46.23,40.16A11.15,11.15,0,0,0,45,41.93a9.22,9.22,0,0,0-.83,1.94,20.74,20.74,0,0,0-.43,2.05c-.14.68-.23,1.38-.37,2.11,0,0,0,0,0,0l0,0A5.39,5.39,0,0,1,43,45.82a7,7,0,0,1,.6-2.15,10.67,10.67,0,0,1,1.07-1.93,9.51,9.51,0,0,1,1.47-1.63s0,0,0,0A0,0,0,0,1,46.23,40.16Z"/><path class="cls-5" d="M54.18,47a11.2,11.2,0,0,1-1.64,0,11.38,11.38,0,0,1-1.64-.24,5.89,5.89,0,0,1-1.59-.5A4.19,4.19,0,0,1,48,45.25a0,0,0,0,1,0-.06h0a11.26,11.26,0,0,1,1.55.48c.5.16,1,.43,1.46.6a9.91,9.91,0,0,0,1.53.43,13.85,13.85,0,0,0,1.59.25s0,0,0,0A0,0,0,0,1,54.18,47Z"/><path class="cls-5" d="M40.83,41.62c-.33.83-.64,1.66-.91,2.5s-.53,1.69-.75,2.55-.34,1.73-.57,2.57-.45,1.71-.76,2.57c0,0,0,0,0,0s0,0,0,0a11.08,11.08,0,0,1,.13-2.7,15.93,15.93,0,0,1,.72-2.6c.29-.85.61-1.68,1-2.51s.75-1.62,1.19-2.4c0,0,0,0,0,0S40.84,41.61,40.83,41.62Z"/><path class="cls-5" d="M51,50.68a12.25,12.25,0,0,1-4.1-.47,7.48,7.48,0,0,1-2-.77,5.68,5.68,0,0,1-1.59-1.38,0,0,0,0,1,0-.05h0c.66.25,1.26.54,1.87.81s1.18.61,1.8.86a12.58,12.58,0,0,0,1.92.6,15.06,15.06,0,0,0,2,.34,0,0,0,0,1,0,0A0,0,0,0,1,51,50.68Z"/><path class="cls-5" d="M47.26,53.87a18.19,18.19,0,0,1-2.45,0,22.4,22.4,0,0,1-2.45-.28A11.67,11.67,0,0,1,40,53a8.73,8.73,0,0,1-2.17-1.21,0,0,0,0,1,0,0h0c.82.16,1.59.38,2.37.59s1.51.51,2.29.7a21.2,21.2,0,0,0,2.37.49,24,24,0,0,0,2.41.25s0,0,0,0A0,0,0,0,1,47.26,53.87Z"/><path class="cls-5" d="M35.42,46.37a20,20,0,0,0-.66,2,18,18,0,0,0-.45,2c-.11.68-.13,1.37-.24,2s-.2,1.37-.37,2.07c0,0,0,0,0,0l0,0a6.77,6.77,0,0,1-.27-2.14,8.92,8.92,0,0,1,.39-2.11,17.7,17.7,0,0,1,.67-2,15.25,15.25,0,0,1,.94-1.9,0,0,0,0,1,0,0A0,0,0,0,1,35.42,46.37Z"/><path class="cls-5" d="M43.18,56.58a22.6,22.6,0,0,1-2.47,0c-.82-.06-1.64-.15-2.45-.29a11.85,11.85,0,0,1-2.42-.58,8.92,8.92,0,0,1-2.19-1.18s0,0,0,0,0,0,0,0c.83.15,1.6.37,2.38.57s1.53.5,2.32.7a21.2,21.2,0,0,0,2.37.49,24.41,24.41,0,0,0,2.43.28s0,0,0,0A0,0,0,0,1,43.18,56.58Z"/><path class="cls-5" d="M11.46,64.93a209.45,209.45,0,0,0,42-23.69A210.71,210.71,0,0,1,12.18,66.56a.89.89,0,1,1-.75-1.62Z"/><path class="cls-4" d="M22.12,51.38a47.17,47.17,0,0,0,0-5.26c-.18-3.53-.6-4.11-.64-6.41A21.57,21.57,0,0,1,27.3,24.82a21.89,21.89,0,0,1,10.91-6.21,18.86,18.86,0,0,1,3.6,9.09,19.48,19.48,0,0,1-2,10.75c-.94,2-2.52,5.31-6,7.43a14.61,14.61,0,0,1-5.41,2.3A17.45,17.45,0,0,0,22.12,51.38Z"/><path class="cls-5" d="M32.72,23.58a9,9,0,0,0,0,2.89c.07.47.25.91.32,1.38a12.85,12.85,0,0,1,.18,1.47,0,0,0,0,1,0,0h0A3.35,3.35,0,0,1,32.34,28a4.83,4.83,0,0,1-.2-1.51,9.63,9.63,0,0,1,.1-1.52,7.9,7.9,0,0,1,.41-1.44s0,0,0,0S32.72,23.56,32.72,23.58Z"/><path class="cls-5" d="M29.42,26.18a10.22,10.22,0,0,0-.18,2.13,9.8,9.8,0,0,0,.24,2.1,19.27,19.27,0,0,0,.65,2c.22.67.48,1.32.73,2a0,0,0,0,1,0,0h0a5.48,5.48,0,0,1-1.33-1.79,6.74,6.74,0,0,1-.55-2.16,10.9,10.9,0,0,1,0-2.21,9.74,9.74,0,0,1,.47-2.14,0,0,0,0,1,0,0S29.43,26.16,29.42,26.18Z"/><path class="cls-5" d="M39.73,28.17a10.55,10.55,0,0,1-1.41.85,10.28,10.28,0,0,1-1.54.61,5.4,5.4,0,0,1-1.63.35,4,4,0,0,1-1.66-.28s0,0,0-.05l0,0a14.75,14.75,0,0,1,1.58-.36c.52-.1,1.05-.09,1.57-.19a10.53,10.53,0,0,0,1.54-.39,11.9,11.9,0,0,0,1.5-.58,0,0,0,0,1,.05,0S39.74,28.16,39.73,28.17Z"/><path class="cls-5" d="M25.46,30.13c.13.88.27,1.75.45,2.62s.38,1.73.62,2.58.56,1.67.78,2.52.46,1.7.62,2.6c0,0,0,0,0,0h0a11.22,11.22,0,0,1-1.24-2.41A16.63,16.63,0,0,1,26,35.46c-.17-.88-.31-1.77-.41-2.65s-.16-1.79-.17-2.68c0,0,0,0,0,0A0,0,0,0,1,25.46,30.13Z"/><path class="cls-5" d="M38.75,33a12.64,12.64,0,0,1-1.82,1,13,13,0,0,1-2,.66,8.11,8.11,0,0,1-2.08.31,5.77,5.77,0,0,1-2.05-.42,0,0,0,0,1,0,0s0,0,0,0c.7-.11,1.37-.16,2-.23s1.33-.05,2-.15a12,12,0,0,0,2-.43,13.3,13.3,0,0,0,1.91-.71s0,0,.05,0S38.77,32.94,38.75,33Z"/><path class="cls-5" d="M37.13,37.56A18.51,18.51,0,0,1,35,38.8a21.42,21.42,0,0,1-2.26,1,11.77,11.77,0,0,1-2.38.69,9,9,0,0,1-2.48,0s0,0,0,0a0,0,0,0,1,0,0c.79-.27,1.57-.46,2.34-.66s1.57-.32,2.34-.53a22.75,22.75,0,0,0,2.29-.76c.76-.29,1.5-.62,2.22-1a0,0,0,1,1,0,.06Z"/><path class="cls-5" d="M23.13,36.93A17.87,17.87,0,0,0,23.54,39a17.39,17.39,0,0,0,.61,2c.25.65.58,1.25.82,1.9s.51,1.28.71,2c0,0,0,0,0,0s0,0,0,0a6.31,6.31,0,0,1-1.29-1.71,9.18,9.18,0,0,1-.72-2,18.58,18.58,0,0,1-.42-2.1,14.94,14.94,0,0,1-.13-2.11s0,0,0,0A0,0,0,0,1,23.13,36.93Z"/><path class="cls-5" d="M34.93,41.94a23.57,23.57,0,0,1-2.13,1.23,22.94,22.94,0,0,1-2.28,1,12.07,12.07,0,0,1-2.38.7,9,9,0,0,1-2.49.06s0,0,0,0a0,0,0,0,1,0,0c.79-.28,1.57-.48,2.35-.69s1.57-.33,2.35-.54a24,24,0,0,0,2.31-.76c.76-.28,1.5-.61,2.24-1,0,0,0,0,.05,0S35,41.93,34.93,41.94Z"/><path class="cls-5" d="M11.56,65A209.11,209.11,0,0,0,36.22,23.52,210.26,210.26,0,0,1,13,66a.89.89,0,0,1-1.46-1Z"/><path class="cls-4" d="M13.09,47.66a47.56,47.56,0,0,0-2.81-4.45c-2-2.89-2.71-3.15-4-5.07A21.88,21.88,0,0,1,3.15,30a21.41,21.41,0,0,1,.07-7.53A21.94,21.94,0,0,1,9.11,11.36,19,19,0,0,1,17,17.1a19.39,19.39,0,0,1,4.09,10.15c.27,2.16.72,5.83-1.08,9.49a14.33,14.33,0,0,1-3.34,4.83A17.69,17.69,0,0,0,13.09,47.66Z"/><path class="cls-5" d="M7.13,18.5A9.26,9.26,0,0,0,8.68,21c.31.35.7.64,1,1a13.93,13.93,0,0,1,.94,1.14,0,0,0,0,1,0,.06h0a3.42,3.42,0,0,1-1.38-.67,4.44,4.44,0,0,1-1-1.18A7.84,7.84,0,0,1,7.5,20a7.43,7.43,0,0,1-.43-1.44s0,0,0,0S7.13,18.49,7.13,18.5Z"/><path class="cls-5" d="M5.75,22.46a10.08,10.08,0,0,0,1,1.9A9.61,9.61,0,0,0,8.07,26a18.63,18.63,0,0,0,1.61,1.33c.54.44,1.11.85,1.7,1.31,0,0,0,0,0,.05s0,0,0,0a5.24,5.24,0,0,1-2.08-.8,6.78,6.78,0,0,1-1.63-1.53,9.82,9.82,0,0,1-1.21-1.85,9.6,9.6,0,0,1-.75-2.06s0,0,0,0Z"/><path class="cls-5" d="M15.52,18.62a10.06,10.06,0,0,1-.73,1.47,11.59,11.59,0,0,1-1,1.35,5.51,5.51,0,0,1-1.19,1.17,4.22,4.22,0,0,1-1.54.65,0,0,0,0,1-.05,0s0,0,0,0A12.62,12.62,0,0,1,12.19,22c.38-.36.82-.64,1.21-1a10.89,10.89,0,0,0,1.1-1.15,12,12,0,0,0,.95-1.3,0,0,0,0,1,.05,0A0,0,0,0,1,15.52,18.62Z"/><path class="cls-5" d="M4.52,27.92c.58.68,1.17,1.34,1.79,2s1.24,1.25,1.9,1.84,1.37,1.11,2,1.71,1.3,1.19,1.92,1.86a0,0,0,0,1,0,0h0A11.32,11.32,0,0,1,9.77,34a14.91,14.91,0,0,1-2-1.85c-.62-.65-1.21-1.32-1.77-2A25.42,25.42,0,0,1,4.47,28s0,0,0-.05S4.51,27.91,4.52,27.92Z"/><path class="cls-5" d="M17.25,23.18a12.32,12.32,0,0,1-1,1.8,11.89,11.89,0,0,1-1.32,1.61A7.38,7.38,0,0,1,13.34,28a6,6,0,0,1-2,.76s0,0,0,0,0,0,0,0c.53-.47,1.06-.86,1.59-1.28s1.08-.76,1.59-1.19A13.69,13.69,0,0,0,16,24.76a14.08,14.08,0,0,0,1.23-1.62,0,0,0,0,1,0,0S17.26,23.16,17.25,23.18Z"/><path class="cls-5" d="M18.35,27.94a19.41,19.41,0,0,1-1.11,2.18,23.63,23.63,0,0,1-1.39,2A11.49,11.49,0,0,1,14.22,34a8.48,8.48,0,0,1-2.08,1.36,0,0,0,0,1-.05,0,.06.06,0,0,1,0,0c.52-.65,1.08-1.22,1.62-1.81s1.16-1.11,1.69-1.71a21,21,0,0,0,1.53-1.86c.49-.65.93-1.33,1.35-2,0,0,0,0,.05,0A0,0,0,0,1,18.35,27.94Z"/><path class="cls-5" d="M6.2,34.92a18.72,18.72,0,0,0,1.44,1.51,20.26,20.26,0,0,0,1.59,1.35c.55.41,1.16.74,1.71,1.16s1.11.81,1.65,1.29a0,0,0,0,1,0,.05s0,0,0,0a6.5,6.5,0,0,1-2-.75,9.43,9.43,0,0,1-1.69-1.33,17.82,17.82,0,0,1-1.48-1.53A17.44,17.44,0,0,1,6.14,35s0,0,0-.05S6.19,34.9,6.2,34.92Z"/><path class="cls-5" d="M18.85,32.82A23.91,23.91,0,0,1,17.7,35a22.93,22.93,0,0,1-1.39,2,12.7,12.7,0,0,1-1.64,1.87,8.8,8.8,0,0,1-2.07,1.38,0,0,0,0,1,0,0,.08.08,0,0,1,0,0c.52-.65,1.07-1.24,1.61-1.83s1.16-1.13,1.7-1.73a23.18,23.18,0,0,0,1.54-1.87c.49-.65.94-1.32,1.37-2,0,0,0,0,0,0S18.85,32.8,18.85,32.82Z"/><path class="cls-5" d="M11.45,64.77a209.08,209.08,0,0,0-1.39-48.2,210.12,210.12,0,0,1,3.17,48.32.89.89,0,0,1-.94.85.88.88,0,0,1-.84-.93Z"/></g></g></svg>