<svg xmlns="http://www.w3.org/2000/svg" viewBox="0 0 315 315"><defs><style>.cls-1{fill:#23659b;}.cls-2{fill:#14527c;}.cls-3{fill:#6081a4;}.cls-4{fill:#96d0e2;}.cls-5{fill:#fff;}.cls-6{fill:#1e4970;}.cls-7{fill:none;stroke:#6081a4;stroke-linecap:round;stroke-linejoin:round;}</style></defs><title>icon02</title><g id="圖層_1" data-name="圖層 1"><rect class="cls-1" y="0.05" width="315" height="315" rx="33.86" ry="33.86"/><g id="_9F3Uqc.tif" data-name="9F3Uqc.tif"><circle class="cls-2" cx="193.21" cy="107.42" r="8.76"/><circle class="cls-3" cx="191.82" cy="104.98" r="6.31"/><circle class="cls-4" cx="191.4" cy="104.24" r="5.24"/><circle class="cls-5" cx="190.53" cy="102.73" r="3.63"/><circle class="cls-2" cx="219.04" cy="90.72" r="8.76"/><circle class="cls-3" cx="217.65" cy="88.28" r="6.31"/><circle class="cls-4" cx="217.22" cy="87.54" r="5.24"/><circle class="cls-5" cx="216.36" cy="86.02" r="3.63"/><circle class="cls-2" cx="206.17" cy="101.32" r="8.76"/><circle class="cls-3" cx="204.78" cy="98.89" r="6.31"/><circle class="cls-4" cx="204.36" cy="98.15" r="5.24"/><circle class="cls-5" cx="203.49" cy="96.63" r="3.63"/><circle class="cls-2" cx="207.6" cy="86.06" r="8.76"/><circle class="cls-3" cx="206.22" cy="83.62" r="6.31"/><circle class="cls-4" cx="205.79" cy="82.88" r="5.24"/><circle class="cls-5" cx="204.93" cy="81.37" r="3.63"/><circle class="cls-2" cx="196.7" cy="95.55" r="8.76"/><circle class="cls-3" cx="195.31" cy="93.11" r="6.31"/><circle class="cls-4" cx="194.89" cy="92.37" r="5.24"/><circle class="cls-5" cx="194.02" cy="90.85" r="3.63"/><circle class="cls-4" cx="134.64" cy="20.5" r="6.72"/><path class="cls-2" d="M148.27,43.24H121.06a20,20,0,0,1,4.44-16.91A24.39,24.39,0,0,1,134.66,20a25.38,25.38,0,0,0,4.4,14.5A30.68,30.68,0,0,0,148.27,43.24Z"/><circle class="cls-2" cx="167.59" cy="103.19" r="8.76"/><circle class="cls-3" cx="166.2" cy="100.76" r="6.31"/><circle class="cls-4" cx="165.78" cy="100.02" r="5.24"/><circle class="cls-5" cx="164.91" cy="98.5" r="3.63"/><circle class="cls-2" cx="180.66" cy="106.77" r="8.76"/><circle class="cls-3" cx="179.27" cy="104.34" r="6.31"/><circle class="cls-4" cx="178.85" cy="103.59" r="5.24"/><circle class="cls-5" cx="177.98" cy="102.08" r="3.63"/><circle class="cls-2" cx="193.96" cy="84.52" r="8.76"/><circle class="cls-3" cx="192.57" cy="82.08" r="6.31"/><circle class="cls-4" cx="192.15" cy="81.34" r="5.24"/><circle class="cls-5" cx="191.28" cy="79.83" r="3.63"/><circle class="cls-2" cx="181.09" cy="95.12" r="8.76"/><circle class="cls-3" cx="179.7" cy="92.69" r="6.31"/><circle class="cls-4" cx="179.28" cy="91.95" r="5.24"/><circle class="cls-5" cx="178.41" cy="90.43" r="3.63"/><circle class="cls-2" cx="182.52" cy="79.86" r="8.76"/><circle class="cls-3" cx="181.14" cy="77.43" r="6.31"/><circle class="cls-4" cx="180.71" cy="76.69" r="5.24"/><circle class="cls-5" cx="179.85" cy="75.17" r="3.63"/><circle class="cls-2" cx="171.62" cy="89.35" r="8.76"/><circle class="cls-3" cx="170.23" cy="86.91" r="6.31"/><circle class="cls-4" cx="169.81" cy="86.17" r="5.24"/><circle class="cls-5" cx="168.94" cy="84.66" r="3.63"/><circle class="cls-2" cx="159.66" cy="93.75" r="8.76"/><circle class="cls-3" cx="158.27" cy="91.32" r="6.31"/><circle class="cls-4" cx="157.85" cy="90.58" r="5.24"/><circle class="cls-5" cx="156.98" cy="89.06" r="3.63"/><circle class="cls-2" cx="169.14" cy="74.18" r="8.76"/><circle class="cls-3" cx="167.75" cy="71.74" r="6.31"/><circle class="cls-4" cx="167.33" cy="71" r="5.24"/><circle class="cls-5" cx="166.46" cy="69.49" r="3.63"/><circle class="cls-2" cx="163.36" cy="84.52" r="8.76"/><circle class="cls-3" cx="161.97" cy="82.08" r="6.31"/><circle class="cls-4" cx="161.55" cy="81.34" r="5.24"/><circle class="cls-5" cx="160.68" cy="79.83" r="3.63"/><circle class="cls-3" cx="132.92" cy="67.86" r="30.54"/><path class="cls-5" d="M116.38,68.38c-5.23,2.16-10.39-1.26-12.91-4.73-3.23-4.45-4-11.61-1.14-14.61,4.67-4.84,20,.12,20.91,8.47C123.7,61.61,120.69,66.61,116.38,68.38Z"/><path class="cls-2" d="M117.63,65.65c-3.49,1.13-6.72-.85-8.39-3.08-2.52-3.35-2.58-8.66-.34-10.87,3.57-3.52,13.73.06,14.34,5.81C123.57,60.57,121.21,64.49,117.63,65.65Z"/><path class="cls-2" d="M123.24,57.51A31.35,31.35,0,0,0,102.33,49a7.52,7.52,0,0,1,0-5.51,7.12,7.12,0,0,1,3.83-4,31.87,31.87,0,0,1,19.27,13.14,5,5,0,0,1-.94,3.8A4.29,4.29,0,0,1,123.24,57.51Z"/><rect class="cls-2" x="216.66" y="90.8" width="1.13" height="34.13" transform="translate(-11.47 27.13) rotate(-6.96)"/><rect class="cls-2" x="134.3" y="93.02" width="1.13" height="34.13" transform="translate(-12.35 17.16) rotate(-6.96)"/><circle class="cls-4" cx="133.22" cy="90.8" r="15.05"/><circle class="cls-5" cx="133.22" cy="86.84" r="12.22"/><path class="cls-2" d="M135.57,67.42c-4.13-1-9.87-1.46-15.32,1.85-6.28,3.81-8.79,10.6-11.81,9.61-1.44-.47-3.16-2.78-4-11.46-3.54,6.22-3.88,13.34-1.17,17.19,2.41,3.44,6.67,3.44,8,3.44,4,0,5-2.15,10.29-4.3,7.68-3.08,10.85-.68,13.24-4C136,78,137.12,74.66,135.57,67.42Z"/><path class="cls-2" d="M130.86,67.42c4.14-1,9.88-1.46,15.32,1.85,6.28,3.81,8.8,10.6,11.81,9.61,1.45-.47,3.17-2.78,4-11.46,3.54,6.22,3.88,13.34,1.17,17.19-2.42,3.44-6.68,3.44-7.95,3.44-4,0-4.95-2.15-10.29-4.3-7.69-3.08-10.85-.68-13.25-4C130.4,78,129.31,74.66,130.86,67.42Z"/><circle class="cls-4" cx="133.22" cy="66.69" r="5.3"/><circle class="cls-4" cx="127.92" cy="68.34" r="3.65"/><circle class="cls-4" cx="138.52" cy="68.34" r="3.65"/><circle class="cls-2" cx="133.22" cy="44.73" r="8.14"/><circle class="cls-4" cx="133.22" cy="44.73" r="4.07"/><circle class="cls-4" cx="117.17" cy="56.45" r="3.64"/><path class="cls-5" d="M149,68.11c5.08,2.49,10.46-.6,13.19-3.9,3.51-4.23,4.77-11.32,2.07-14.5-4.35-5.14-20-1.16-21.41,7.11C142.14,60.88,144.82,66.06,149,68.11Z"/><path class="cls-2" d="M147.94,65.3c3.41,1.35,6.76-.41,8.57-2.53,2.73-3.18,3.12-8.48,1-10.83-3.33-3.75-13.7-.82-14.68,4.88C142.34,59.85,144.44,63.92,147.94,65.3Z"/><path class="cls-2" d="M142.86,56.82a31.33,31.33,0,0,1,21.41-7.11,7.59,7.59,0,0,0,.41-5.5A7.17,7.17,0,0,0,161.11,40,31.87,31.87,0,0,0,141,51.87a5,5,0,0,0,.7,3.85A4.44,4.44,0,0,0,142.86,56.82Z"/><circle class="cls-4" cx="148.99" cy="56.15" r="3.64"/></g><path class="cls-5" d="M108.14,154.84v19.8H103.9v-32h13.57v12.23Zm0-9.25v1.77h5.33v-1.77Zm5.33,6.27v-1.8h-5.33v1.8Zm20.23,18c0,2-.25,3.23-1.44,3.95s-2.63.83-4.75.83a13.65,13.65,0,0,0-.54-2.59L125,173a14.25,14.25,0,0,0-.62-1.55c-5.07.39-10.29.68-14.11.9l-.29-3.42c1.95-.07,4.32-.22,6.92-.32v-2.88h-6.09v-8h6.09v-2.38h3.49v2.38h6.33v8h-1.83a26.91,26.91,0,0,1,2.7,4.64,9.93,9.93,0,0,0,1.26,0c.39,0,.5-.14.5-.54V154.84h-9.65V142.61h14Zm-16.77-7v-2.49h-2.88v2.49Zm3.49-2.49v2.49h3v-2.49Zm2.41,7.85c-.29-.5-.61-1-.9-1.44l2.56-1.11h-4.07v2.7Zm1-22.68v1.77h5.54v-1.77Zm5.54,6.27v-1.8h-5.54v1.8Z"/><path class="cls-5" d="M158.47,148.08c-.14,1-.32,1.83-.5,2.7h13.21v19.54c0,2.09-.51,3.06-2,3.68s-3.57.61-6.45.61a14,14,0,0,0-1.37-3.64c1.73.11,4,.11,4.54.07s.83-.18.83-.75V154.7h-6.88l3.6.72c-.5,1.33-1,2.63-1.51,3.78h2.63v3.31H158.5v2.34h6.88v3.46H158.5v5.32h-4v-5.32h-6.66v-3.46h6.66v-2.34h-5.9V159.2h2.77a26,26,0,0,0-1.4-3.63l3.38-.83a21.48,21.48,0,0,1,1.62,3.92l-1.91.54h5.26a33.74,33.74,0,0,0,1.37-4.5H146.38v19.91h-4.32V150.78h11.66c.14-.87.29-1.73.39-2.7H140.69v-4h13.86c.07-1.08.14-2.08.18-3l4.75.43c-.11.83-.25,1.73-.36,2.59h13.39v4Z"/><path class="cls-5" d="M191.52,150.42h-13.9V147h6.23a34.27,34.27,0,0,0-2.34-4.53l3.31-1.55a32.53,32.53,0,0,1,2.7,4.79L185.11,147h6.41Zm-1.05,22.31h-7.73v1.52h-3.6V161.83h11.33Zm-.25-17.45h-11V152h11Zm-11,1.62h11v3.2h-11Zm3.53,8.35v4h4v-4ZM211.21,156v3.53h-20.3V156h4.28c.22-1.19.5-2.52.76-4h-3.24v-3.45h3.85c.14-.9.25-1.8.39-2.67h-5.14v-3.52h18.46V146h-9.1c-.15.87-.29,1.77-.47,2.67h7.45V156Zm-18.5,5.22h16.55v13.39h-4.17v-1.18H196.7v1.29h-4Zm4,3.67v4.86h8.39v-4.86Zm3.38-12.85c-.25,1.44-.54,2.77-.79,4h4.9v-4Z"/><path class="cls-6" d="M208.22,311.64c-1.61.33-6.08.47-14.93.73-20.56.62-26.45.21-50.51.53-1.4,0-10.15.14-21.8.09-13.63-.06-18.49-.29-21.83-1.35-4.25-1.35-4-3.4-4-4.4.71-8.25-2.06-16.5-1.37-24.74.73-8.71,1.09-13.07,1-13.5-1-6-3.52-10.05,4.3-12.18,3.44-.93,7.35-1.07,13.62-1.23,37-.93,43.24.4,68.56,0,11.84-.2,21.37-.67,26.89,1.25,3.48,1.22,3.72,2.81,3.8,3.48,1,9.6,1.58,14.4-.19,26.76C209.76,301.48,221.73,308.94,208.22,311.64Z"/><path class="cls-3" d="M172.15,312.34a32.57,32.57,0,0,1-4.71.35c-6.49.3-8.35.11-15.94.26-.44,0-3.2.07-6.87,0-4.31,0-5.84-.13-6.89-.65a2,2,0,0,1-1.25-2.15c.22-4-.65-8.05-.43-12.08.23-4.25.34-6.38.32-6.59-.3-2.9-1.11-4.9,1.36-5.94a12.15,12.15,0,0,1,4.3-.6c11.67-.46,13.64.19,21.63,0,3.73-.1,6.74-.33,8.48.61a2,2,0,0,1,1.2,1.7,64.11,64.11,0,0,1-.06,13.06C172.64,307.38,176.41,311,172.15,312.34Z"/><rect class="cls-3" x="103.83" y="264.04" width="8.15" height="48.96"/><rect class="cls-3" x="123.63" y="264.04" width="8.15" height="48.96"/><rect class="cls-3" x="178.26" y="264.04" width="8.15" height="48.96"/><rect class="cls-3" x="198.05" y="264.04" width="8.15" height="48.96"/><path class="cls-4" d="M90.32,264.94a406.19,406.19,0,0,0,55.05,3.55c17.54-.07,13.59-1.22,34.13-1.48,26.47-.34,38.67,1.5,41.54-4.45,1-2.1-.53-2.31-5.08-17-3.12-10.08-4.14-15.77-9.48-19.38a16.76,16.76,0,0,0-4.73-2.19H105.32c-1.16,1.53-2.69,3.68-4.33,6.34a69.37,69.37,0,0,0-8.3,18A62.44,62.44,0,0,0,90.32,264.94Z"/><path class="cls-7" d="M109.81,231.72a100.22,100.22,0,0,1-4.15,12.46A101.14,101.14,0,0,1,98.74,258"/><polyline class="cls-7" points="120.2 232.41 116.04 244.87 113.28 255.94"/><line class="cls-7" x1="129.89" y1="232.41" x2="126.58" y2="255.25"/><line class="cls-7" x1="140.96" y1="232.41" x2="140.96" y2="255.25"/><line class="cls-7" x1="167.26" y1="232.41" x2="167.26" y2="255.25"/><path class="cls-7" d="M196.33,231.72A100.72,100.72,0,0,0,207.4,258"/><polyline class="cls-7" points="185.95 232.41 190.1 244.87 192.87 255.94"/><line class="cls-7" x1="176.26" y1="232.41" x2="179.56" y2="255.25"/><line class="cls-7" x1="154.8" y1="232.41" x2="154.8" y2="253.17"/><path class="cls-3" d="M216.58,217.91c-.39-.17-1.6,1.57-4.45,3a30.66,30.66,0,0,1-10.73,3H109c-1.48,0-7-.17-11.1-3-2-1.37-2.54-3.14-3-3s-.09,2.72,1.49,5.06a15.3,15.3,0,0,0,5.19,4.57l106.82-1a23.16,23.16,0,0,0,3.7-2.53C215.34,221.29,217.11,218.12,216.58,217.91Z"/><path class="cls-3" d="M229.83,256.19c-.47-.21-1.94,2-5.36,3.93A34.85,34.85,0,0,1,211.54,264c-17.27.92-35.39,1.46-54.3,1.49-19.88,0-38.9-.52-57-1.49-7.37.23-11.21-1.86-13.37-3.92-1.91-1.83-3-4.07-3.57-3.93s-.12,3.51,1.78,6.55a19,19,0,0,0,6.26,5.89c20.72,1.09,42.72,1.62,65.88,1.35,22-.26,43-1.22,62.76-2.66a26.47,26.47,0,0,0,4.47-3.27C228.33,260.56,230.46,256.47,229.83,256.19Z"/></g></svg>