<svg xmlns="http://www.w3.org/2000/svg" viewBox="0 0 315 315"><defs><style>.cls-1{fill:#e54646;}.cls-2{fill:#fff;}.cls-3{fill:#1e4970;}.cls-4{fill:#6081a4;}.cls-5{fill:#e57777;}.cls-6{fill:none;stroke:#e54646;stroke-miterlimit:10;}.cls-7{fill:#14527c;}</style></defs><title>hover02</title><g id="圖層_1" data-name="圖層 1"><rect class="cls-1" x="-0.27" width="315" height="315" rx="33.86" ry="33.86"/><path class="cls-2" d="M107.87,154.79v19.8h-4.25v-32h13.57v12.23Zm0-9.25v1.77h5.33v-1.77Zm5.33,6.27V150h-5.33v1.8Zm20.23,18c0,2-.26,3.24-1.44,4s-2.63.83-4.76.83a13.65,13.65,0,0,0-.54-2.59l-1.94.94a14,14,0,0,0-.61-1.55c-5.08.39-10.3.68-14.11.9l-.29-3.42c1.94-.07,4.32-.22,6.91-.33v-2.87h-6.08v-8h6.08v-2.38h3.49v2.38h6.34v8h-1.84a26.28,26.28,0,0,1,2.7,4.64,9.76,9.76,0,0,0,1.26,0c.4,0,.51-.14.51-.54V154.79h-9.65V142.56h14Zm-16.78-6.94v-2.49h-2.88v2.49Zm3.49-2.49v2.49h3v-2.49Zm2.41,7.85c-.28-.5-.61-1-.89-1.44l2.55-1.11h-4.07v2.69Zm1-22.68v1.77h5.55v-1.77Zm5.55,6.27V150h-5.55v1.8Z"/><path class="cls-2" d="M158.2,148c-.15,1-.33,1.83-.51,2.7H170.9v19.54c0,2.09-.5,3.06-2,3.67s-3.56.62-6.44.62a14,14,0,0,0-1.37-3.64c1.73.11,4,.11,4.54.07s.82-.18.82-.75V154.65H159.6l3.6.72c-.51,1.33-1,2.63-1.51,3.78h2.62v3.31h-6.08v2.34h6.88v3.46h-6.88v5.32h-4v-5.32h-6.66V164.8h6.66v-2.34h-5.9v-3.31h2.77a28,28,0,0,0-1.41-3.64l3.39-.82a21.48,21.48,0,0,1,1.62,3.92l-1.91.54H158a32.33,32.33,0,0,0,1.37-4.5H146.1v19.91h-4.32V150.73h11.66c.15-.87.29-1.73.4-2.7H140.41v-4h13.86c.07-1.08.15-2.09.18-3l4.75.43c-.1.83-.25,1.73-.36,2.59h13.39v4Z"/><path class="cls-2" d="M191.24,150.37H177.35V147h6.23a34.27,34.27,0,0,0-2.34-4.53l3.31-1.55a33.47,33.47,0,0,1,2.7,4.79L184.84,147h6.4Zm-1,22.31h-7.74v1.52h-3.6V161.78H190.2ZM190,155.23h-11V152h11Zm-11,1.62h11v3.2h-11Zm3.53,8.35v4h4v-4ZM210.93,156v3.53h-20.3V156h4.29c.21-1.19.5-2.52.75-4h-3.24v-3.45h3.85c.15-.9.26-1.8.4-2.67h-5.15v-3.52H210v3.52h-9.11c-.14.87-.29,1.77-.47,2.67h7.45V156Zm-18.5,5.22H209v13.39h-4.18V173.4h-8.38v1.3h-4Zm4,3.67v4.86h8.38v-4.86ZM199.81,152c-.25,1.44-.54,2.77-.79,4h4.89v-4Z"/><path class="cls-3" d="M208,311.59c-1.62.32-6.08.46-14.94.73-20.56.62-26.44.21-50.51.53-1.4,0-10.14.14-21.79.09-13.63-.06-18.49-.29-21.83-1.35-4.26-1.35-4-3.4-4-4.4.72-8.25-2-16.5-1.36-24.75.72-8.7,1.08-13.06,1-13.49-1-6-3.53-10.05,4.3-12.18,3.44-.93,7.35-1.07,13.62-1.23,37-.93,43.24.39,68.56,0,11.84-.19,21.37-.66,26.89,1.26,3.47,1.22,3.72,2.81,3.79,3.48,1.06,9.6,1.59,14.4-.18,26.76C209.49,301.43,221.46,308.89,208,311.59Z"/><path class="cls-2" d="M171.87,312.29a33.93,33.93,0,0,1-4.71.35c-6.48.3-8.34.1-15.93.26-.45,0-3.2.07-6.88,0-4.3,0-5.83-.14-6.89-.65a2,2,0,0,1-1.24-2.15c.22-4-.65-8.05-.44-12.08.23-4.25.35-6.38.33-6.59-.31-2.9-1.12-4.9,1.35-5.94a12.19,12.19,0,0,1,4.3-.6c11.68-.46,13.64.19,21.63,0,3.74-.09,6.74-.32,8.48.62a2,2,0,0,1,1.2,1.7,63.39,63.39,0,0,1-.06,13.06C172.36,307.33,176.14,311,171.87,312.29Z"/><rect class="cls-4" x="103.56" y="263.99" width="8.15" height="48.96"/><rect class="cls-4" x="123.35" y="263.99" width="8.15" height="48.96"/><rect class="cls-4" x="177.98" y="263.99" width="8.15" height="48.96"/><rect class="cls-4" x="197.78" y="263.99" width="8.15" height="48.96"/><path class="cls-5" d="M90.05,264.89a406.1,406.1,0,0,0,55.05,3.55c17.53-.07,13.58-1.22,34.12-1.48,26.47-.34,38.68,1.5,41.54-4.45,1-2.1-.52-2.31-5.07-17-3.12-10.08-4.14-15.77-9.48-19.38a17.16,17.16,0,0,0-4.74-2.2H105c-1.15,1.54-2.68,3.69-4.32,6.35a69.37,69.37,0,0,0-8.3,18A61.63,61.63,0,0,0,90.05,264.89Z"/><path class="cls-6" d="M109.54,231.67a102.48,102.48,0,0,1-4.15,12.46A101.14,101.14,0,0,1,98.47,258"/><polyline class="cls-6" points="119.92 232.36 115.77 244.82 113 255.89"/><line class="cls-6" x1="129.61" y1="232.36" x2="126.31" y2="255.2"/><line class="cls-6" x1="140.69" y1="232.36" x2="140.69" y2="255.2"/><line class="cls-6" x1="166.99" y1="232.36" x2="166.99" y2="255.2"/><path class="cls-6" d="M196.05,231.67A101.24,101.24,0,0,0,207.13,258"/><polyline class="cls-6" points="185.67 232.36 189.82 244.82 192.59 255.89"/><line class="cls-6" x1="175.98" y1="232.36" x2="179.29" y2="255.2"/><line class="cls-6" x1="154.53" y1="232.36" x2="154.53" y2="253.12"/><path class="cls-4" d="M216.31,217.85c-.39-.16-1.6,1.58-4.45,3.05a30.49,30.49,0,0,1-10.73,3h-92.4c-1.48,0-7-.16-11.11-3-2-1.37-2.53-3.14-3-3.05s-.1,2.73,1.48,5.07a15.48,15.48,0,0,0,5.19,4.57l106.82-1a23.18,23.18,0,0,0,3.71-2.53C215.07,221.24,216.83,218.07,216.31,217.85Z"/><path class="cls-4" d="M229.55,256.14c-.47-.21-1.93,2-5.36,3.93A34.76,34.76,0,0,1,211.27,264c-17.27.92-35.39,1.46-54.3,1.48-19.88,0-38.9-.51-57-1.48-7.38.22-11.22-1.86-13.37-3.92-1.92-1.83-3-4.07-3.58-3.93s-.11,3.51,1.79,6.55a19,19,0,0,0,6.25,5.89c20.72,1.09,42.73,1.62,65.89,1.35,22-.26,43-1.22,62.76-2.66a26.46,26.46,0,0,0,4.46-3.27C228.06,260.51,230.18,256.42,229.55,256.14Z"/><g id="_9F3Uqc.tif" data-name="9F3Uqc.tif"><rect class="cls-7" x="216.39" y="90.75" width="1.13" height="34.13" transform="translate(-11.47 27.1) rotate(-6.96)"/><circle class="cls-7" cx="192.93" cy="107.37" r="8.76"/><circle class="cls-4" cx="191.55" cy="104.93" r="6.31"/><circle class="cls-1" cx="191.12" cy="104.19" r="5.24"/><circle class="cls-2" cx="190.26" cy="102.68" r="3.63"/><circle class="cls-7" cx="218.76" cy="90.66" r="8.76"/><circle class="cls-4" cx="217.37" cy="88.23" r="6.31"/><circle class="cls-1" cx="216.95" cy="87.49" r="5.24"/><circle class="cls-2" cx="216.08" cy="85.97" r="3.63"/><circle class="cls-7" cx="205.9" cy="101.27" r="8.76"/><circle class="cls-4" cx="204.51" cy="98.84" r="6.31"/><circle class="cls-1" cx="204.08" cy="98.1" r="5.24"/><circle class="cls-2" cx="203.22" cy="96.58" r="3.63"/><circle class="cls-7" cx="207.33" cy="86.01" r="8.76"/><circle class="cls-4" cx="205.94" cy="83.57" r="6.31"/><circle class="cls-1" cx="205.52" cy="82.83" r="5.24"/><circle class="cls-2" cx="204.65" cy="81.32" r="3.63"/><circle class="cls-7" cx="196.43" cy="95.49" r="8.76"/><circle class="cls-4" cx="195.04" cy="93.06" r="6.31"/><circle class="cls-1" cx="194.61" cy="92.32" r="5.24"/><circle class="cls-2" cx="193.75" cy="90.8" r="3.63"/><circle class="cls-2" cx="134.36" cy="20.45" r="6.72"/><path class="cls-7" d="M148,43.19H120.78a20,20,0,0,1,4.45-16.91,24.31,24.31,0,0,1,9.16-6.38,25.43,25.43,0,0,0,4.39,14.5A30.68,30.68,0,0,0,148,43.19Z"/><circle class="cls-7" cx="167.32" cy="103.14" r="8.76"/><circle class="cls-4" cx="165.93" cy="100.71" r="6.31"/><circle class="cls-1" cx="165.51" cy="99.97" r="5.24"/><circle class="cls-2" cx="164.64" cy="98.45" r="3.63"/><circle class="cls-7" cx="180.38" cy="106.72" r="8.76"/><circle class="cls-4" cx="179" cy="104.28" r="6.31"/><circle class="cls-1" cx="178.57" cy="103.54" r="5.24"/><circle class="cls-2" cx="177.71" cy="102.03" r="3.63"/><circle class="cls-7" cx="193.68" cy="84.47" r="8.76"/><circle class="cls-4" cx="192.29" cy="82.03" r="6.31"/><circle class="cls-1" cx="191.87" cy="81.29" r="5.24"/><circle class="cls-2" cx="191.01" cy="79.77" r="3.63"/><circle class="cls-7" cx="180.82" cy="95.07" r="8.76"/><circle class="cls-4" cx="179.43" cy="92.64" r="6.31"/><circle class="cls-1" cx="179.01" cy="91.9" r="5.24"/><circle class="cls-2" cx="178.14" cy="90.38" r="3.63"/><circle class="cls-7" cx="182.25" cy="79.81" r="8.76"/><circle class="cls-4" cx="180.86" cy="77.38" r="6.31"/><circle class="cls-1" cx="180.44" cy="76.63" r="5.24"/><circle class="cls-2" cx="179.57" cy="75.12" r="3.63"/><circle class="cls-7" cx="172.35" cy="89.3" r="8.76"/><circle class="cls-4" cx="170.96" cy="86.86" r="6.31"/><circle class="cls-1" cx="170.54" cy="86.12" r="5.24"/><circle class="cls-2" cx="169.67" cy="84.6" r="3.63"/><circle class="cls-7" cx="159.38" cy="93.7" r="8.76"/><circle class="cls-4" cx="158" cy="91.27" r="6.31"/><circle class="cls-1" cx="157.57" cy="90.53" r="5.24"/><circle class="cls-2" cx="156.71" cy="89.01" r="3.63"/><circle class="cls-7" cx="168.86" cy="74.13" r="8.76"/><circle class="cls-4" cx="167.48" cy="71.69" r="6.31"/><circle class="cls-1" cx="167.05" cy="70.95" r="5.24"/><circle class="cls-2" cx="166.19" cy="69.44" r="3.63"/><circle class="cls-7" cx="163.08" cy="84.47" r="8.76"/><circle class="cls-4" cx="161.69" cy="82.03" r="6.31"/><circle class="cls-1" cx="161.27" cy="81.29" r="5.24"/><circle class="cls-2" cx="160.41" cy="79.77" r="3.63"/><circle class="cls-4" cx="132.65" cy="67.81" r="30.54"/><path class="cls-2" d="M116.11,68.33c-5.23,2.16-10.4-1.26-12.92-4.73C100,59.15,99.16,52,102.06,49c4.67-4.84,20,.12,20.91,8.47C123.42,61.56,120.42,66.56,116.11,68.33Z"/><path class="cls-4" d="M117.36,65.6c-3.5,1.13-6.72-.85-8.4-3.08-2.51-3.35-2.57-8.66-.33-10.87,3.56-3.53,13.73.05,14.34,5.81A8.38,8.38,0,0,1,117.36,65.6Z"/><path class="cls-7" d="M123,57.46A31.4,31.4,0,0,0,102.06,49a7.5,7.5,0,0,1-.06-5.51,7.13,7.13,0,0,1,3.84-4,31.94,31.94,0,0,1,19.27,13.14,5,5,0,0,1-.94,3.8A4.43,4.43,0,0,1,123,57.46Z"/><rect class="cls-7" x="134.03" y="92.97" width="1.13" height="34.13" transform="translate(-12.35 17.13) rotate(-6.96)"/><circle class="cls-7" cx="132.94" cy="90.75" r="15.05"/><circle class="cls-1" cx="132.94" cy="86.79" r="12.22"/><path class="cls-7" d="M135.3,67.37c-4.13-1-9.88-1.46-15.32,1.85-6.28,3.81-8.79,10.6-11.81,9.61-1.45-.47-3.17-2.78-4-11.46-3.54,6.22-3.88,13.34-1.17,17.19C105.44,88,109.7,88,111,88c4,0,5-2.15,10.29-4.3,7.69-3.09,10.86-.68,13.25-4C135.76,78,136.85,74.61,135.3,67.37Z"/><path class="cls-7" d="M130.59,67.37c4.13-1,9.88-1.46,15.32,1.85,6.28,3.81,8.79,10.6,11.81,9.61,1.44-.47,3.17-2.78,4-11.46,3.54,6.22,3.87,13.34,1.17,17.19-2.42,3.44-6.68,3.44-8,3.44-4,0-4.95-2.15-10.29-4.3-7.68-3.09-10.85-.68-13.24-4C130.13,78,129,74.61,130.59,67.37Z"/><circle class="cls-1" cx="132.94" cy="66.64" r="5.3"/><circle class="cls-1" cx="127.64" cy="68.29" r="3.65"/><circle class="cls-1" cx="138.25" cy="68.29" r="3.65"/><circle class="cls-7" cx="132.94" cy="44.68" r="8.14"/><circle class="cls-1" cx="132.94" cy="44.68" r="4.07"/><circle class="cls-7" cx="116.89" cy="56.4" r="3.64"/><path class="cls-2" d="M148.73,68.06c5.08,2.48,10.46-.6,13.2-3.9,3.51-4.23,4.76-11.33,2.07-14.5-4.36-5.14-20-1.16-21.41,7.11C141.87,60.83,144.55,66,148.73,68.06Z"/><path class="cls-4" d="M147.66,65.25c3.42,1.35,6.76-.41,8.58-2.53,2.72-3.19,3.12-8.48,1-10.83-3.34-3.75-13.71-.82-14.68,4.88C142.07,59.8,144.17,63.87,147.66,65.25Z"/><path class="cls-7" d="M142.59,56.77A31.33,31.33,0,0,1,164,49.66a7.56,7.56,0,0,0,.4-5.5,7.14,7.14,0,0,0-3.57-4.22,31.81,31.81,0,0,0-20.07,11.88,5,5,0,0,0,.69,3.85A4.31,4.31,0,0,0,142.59,56.77Z"/><circle class="cls-7" cx="148.72" cy="56.1" r="3.64"/></g></g></svg>