<svg id="圖層_1" data-name="圖層 1" xmlns="http://www.w3.org/2000/svg" viewBox="0 0 95 95"><defs><style>.cls-1{fill:#fff;}.cls-2{fill:#f2e16f;}.cls-3{fill:#23659b;}</style></defs><title>左側02</title><circle class="cls-1" cx="47.5" cy="47.5" r="47.5"/><path class="cls-2" d="M74.14,46.85a32,32,0,0,1-1.27,8.35,28,28,0,0,1-3.36,7.08q2.42,4.81,5.15,9.77,1.17,2.11,2.35,4.17c-1.78-.7-3.6-1.4-5.49-2.08-3.65-1.33-7.19-2.47-10.6-3.47-1,.51-2.36,1.23-4.1,2-1,.45-2,.85-2.41,1A28.07,28.07,0,1,1,74.14,46.85Z"/><path class="cls-3" d="M39.56,44.27v13.6H36.64v-22H46v8.41Zm0-6.36v1.21h3.66V37.91Zm3.66,4.31V41H39.56v1.24Zm13.9,12.36c0,1.36-.17,2.23-1,2.72a6,6,0,0,1-3.27.57,8.71,8.71,0,0,0-.37-1.78l-1.33.65a11.1,11.1,0,0,0-.42-1.07c-3.49.27-7.08.47-9.7.62l-.2-2.35c1.34,0,3-.15,4.75-.22v-2H41.41V46.22h4.18V44.59H48v1.63h4.36v5.52H51.08a17.78,17.78,0,0,1,1.86,3.19c.39,0,.72,0,.86,0s.35-.1.35-.38V44.27H47.52V35.86h9.6ZM45.59,49.81V48.1h-2v1.71ZM48,48.1v1.71h2V48.1Zm1.66,5.4c-.2-.35-.42-.7-.62-1l1.76-.77H48v1.85Zm.69-15.59v1.21h3.81V37.91Zm3.81,4.31V41H50.34v1.24Z"/></svg>